<?xml version="1.0"?>
<svg xmlns="http://www.w3.org/2000/svg" height="512px" viewBox="0 0 512 512.00194" width="512px" class=""><g><path d="m375.480469 358.378906c-2.183594 0-4.367188-.835937-6.03125-2.5-3.335938-3.335937-3.335938-8.730468 0-12.066406l17.066406-17.066406c3.328125-3.335938 8.738281-3.335938 12.066406 0 3.335938 3.335937 3.335938 8.730468 0 12.066406l-17.066406 17.066406c-1.664063 1.664063-3.859375 2.5-6.035156 2.5zm0 0" data-original="#000000" class="active-path" data-old_color="#ffffff" fill="#c04001"/><path d="m273.082031 358.378906c-2.183593 0-4.367187-.835937-6.03125-2.5-3.335937-3.335937-3.335937-8.730468 0-12.066406l17.066407-17.066406c3.328124-3.335938 8.738281-3.335938 12.066406 0 3.335937 3.335937 3.335937 8.730468 0 12.066406l-17.066406 17.066406c-1.664063 1.664063-3.859376 2.5-6.035157 2.5zm0 0" data-original="#000000" class="active-path" data-old_color="#ffffff" fill="#c04001"/><path d="m349.882812 247.449219c-2.183593 0-4.371093-.839844-6.035156-2.503907-3.335937-3.335937-3.335937-8.726562 0-12.0625l17.066406-17.066406c3.328126-3.339844 8.738282-3.339844 12.066407 0 3.335937 3.335938 3.335937 8.726563 0 12.0625l-17.066407 17.066406c-1.664062 1.664063-3.855468 2.503907-6.03125 2.503907zm0 0" data-original="#000000" class="active-path" data-old_color="#ffffff" fill="#c04001"/><path d="m162.152344 358.378906c-2.183594 0-4.371094-.835937-6.035156-2.5-3.335938-3.335937-3.335938-8.730468 0-12.066406l17.066406-17.066406c3.328125-3.335938 8.738281-3.335938 12.066406 0 3.335938 3.335937 3.335938 8.730468 0 12.066406l-17.066406 17.066406c-1.664063 1.664063-3.855469 2.5-6.03125 2.5zm0 0" data-original="#000000" class="active-path" data-old_color="#ffffff" fill="#c04001"/><path d="m307.214844 127.984375c-2.183594 0-4.367188-.835937-6.03125-2.5-3.335938-3.339844-3.335938-8.730469 0-12.066406l17.066406-17.066407c3.328125-3.335937 8.738281-3.335937 12.066406 0 3.335938 3.335938 3.335938 8.726563 0 12.066407l-17.066406 17.066406c-1.664062 1.664063-3.859375 2.5-6.035156 2.5zm0 0" data-original="#000000" class="active-path" data-old_color="#ffffff" fill="#c04001"/><path d="m196.285156 221.847656c-2.183594 0-4.371094-.835937-6.035156-2.5-3.335938-3.335937-3.335938-8.730468 0-12.066406l17.066406-17.066406c3.328125-3.335938 8.738282-3.335938 12.066406 0 3.335938 3.335937 3.335938 8.730468 0 12.066406l-17.066406 17.066406c-1.664062 1.664063-3.855468 2.5-6.03125 2.5zm0 0" data-original="#000000" class="active-path" data-old_color="#ffffff" fill="#c04001"/><path d="m255.863281 477.859375c-24.019531 0-47.691406-3.890625-70.6875-11.636719-2.238281-.753906-4.0625-2.398437-5.042969-4.550781-.984374-2.148437-1.015624-4.613281-.121093-6.800781l80.417969-194.332032c1.628906-3.925781-.726563-6.71875-1.484376-7.476562-.761718-.757812-3.550781-3.097656-7.476562-1.492188l-194.34375 80.414063c-2.183594.898437-4.640625.863281-6.792969-.117187-2.148437-.972657-3.796875-2.800782-4.554687-5.042969-11.042969-32.800781-14.25-66.960938-9.523438-101.539063 14.078125-103.054687 99.691406-183.214844 203.558594-190.585937 64.519531-4.710938 127.589844 18.890625 173.105469 64.425781 45.515625 45.53125 68.980469 108.625 64.371093 173.121094-7.40625 103.847656-87.582031 189.425781-190.628906 203.507812-10.308594 1.40625-20.582031 2.105469-30.796875 2.105469zm-56.515625-25.085937c27.570313 7.960937 56.132813 10.027343 85.007813 6.058593 95.09375-12.980469 169.078125-91.960937 175.910156-187.808593 4.25-59.550782-17.40625-117.816407-59.421875-159.835938-42.019531-42.023438-100.242188-63.613281-159.828125-59.472656-95.851563 6.816406-174.855469 80.78125-187.859375 175.882812-3.949219 28.894532-1.910156 57.445313 6.058594 85.050782l185.71875-76.855469c9.113281-3.78125 19.097656-1.785157 26.066406 5.1875 6.972656 6.960937 8.960938 16.953125 5.1875 26.066406zm0 0" data-original="#000000" class="active-path" data-old_color="#ffffff" fill="#c04001"/><path d="m138.609375 511.976562c-1.109375 0-2.21875-.214843-3.269531-.648437-60.515625-25.070313-109.601563-74.152344-134.671875-134.679687-.867188-2.089844-.867188-4.445313 0-6.535157.871093-2.09375 2.527343-3.746093 4.625-4.617187l221.863281-91.808594c3.191406-1.339844 6.863281-.589844 9.292969 1.851562 2.441406 2.441407 3.175781 6.109376 1.851562 9.300782l-91.808593 221.863281c-.871094 2.089844-2.523438 3.746094-4.617188 4.617187-1.046875.433594-2.15625.65625-3.265625.65625zm-118.757813-134.03125c23.039063 50.183594 64.015626 91.167969 114.199219 114.199219l80.613281-194.8125zm0 0" data-original="#000000" class="active-path" data-old_color="#ffffff" fill="#c04001"/><path d="m255.820312 512c-28.355468 0-56.269531-4.691406-83.34375-14.042969-2.21875-.769531-4.027343-2.414062-4.992187-4.558593-.964844-2.140626-1.007813-4.582032-.109375-6.757813l93.0625-225.964844c1.621094-3.9375-.742188-6.71875-1.511719-7.476562-.765625-.75-3.558593-3.132813-7.484375-1.460938l-225.539062 94.351563c-2.167969.90625-4.609375.890625-6.757813-.074219-2.140625-.949219-3.804687-2.75-4.582031-4.96875-13.59375-38.558594-17.691406-78.914063-12.203125-119.949219 15.394531-115.078125 106.546875-205.207031 221.648437-219.175781 79.207032-9.574219 156.773438 16.921875 212.792969 72.8125 56.019531 55.886719 82.753907 133.367187 73.34375 212.582031-13.664062 114.921875-103.390625 206.28125-218.210937 222.160156-12.09375 1.679688-24.148438 2.515626-36.113282 2.523438zm-69.160156-27.371094c33.296875 10.128906 67.878906 12.789063 102.933594 7.960938 107.136719-14.832032 190.855469-100.0625 203.601562-207.289063 8.789063-73.972656-16.152343-146.320312-68.441406-198.480469-52.292968-52.164062-124.714844-76.980468-198.6875-67.953124-107.390625 13.03125-192.425781 97.125-206.792968 204.5-4.730469 35.292968-1.851563 70.039062 8.53125 103.421874l217.050781-90.808593c9.105469-3.800781 19.113281-1.851563 26.113281 5.109375 6.996094 6.953125 9.007812 16.945312 5.246094 26.078125zm0 0" data-original="#000000" class="active-path" data-old_color="#ffffff" fill="#c04001"/><path d="m151.679688 480.378906c-1.234376 0-2.464844-.265625-3.597657-.804687-50.816406-23.667969-93.105469-64.101563-119.074219-113.839844-1.109374-2.125-1.269531-4.617187-.453124-6.867187.820312-2.253907 2.542968-4.054688 4.761718-4.96875l193.851563-80.203126c3.191406-1.339843 6.859375-.589843 9.289062 1.851563 2.441407 2.441406 3.175781 6.109375 1.851563 9.300781l-78.742188 190.257813c-.886718 2.148437-2.621094 3.839843-4.789062 4.683593-.996094.394532-2.046875.589844-3.097656.589844zm-103.054688-114.347656c23.007812 40.089844 57.558594 73.070312 98.652344 94.148438l67.386718-162.855469zm0 0" data-original="#000000" class="active-path" data-old_color="#ffffff" fill="#c04001"/><path d="m343.773438 315.714844h-30.449219c-8.070313 0-14.640625-6.574219-14.640625-14.644532v-21.914062c0-8.070312 6.570312-14.640625 14.640625-14.640625h30.449219c8.070312 0 14.640624 6.570313 14.640624 14.640625v21.914062c0 8.070313-6.570312 14.644532-14.640624 14.644532zm-28.023438-17.066406h25.597656v-17.066407h-25.597656zm0 0" data-original="#000000" class="active-path" data-old_color="#ffffff" fill="#c04001"/><path d="m181.640625 170.648438h-47.511719c-8.074218 0-14.644531-6.570313-14.644531-14.644532v-21.910156c0-8.074219 6.570313-14.644531 14.644531-14.644531h47.511719c8.074219 0 14.644531 6.570312 14.644531 14.644531v21.910156c0 8.074219-6.570312 14.644532-14.644531 14.644532zm-45.089844-17.066407h42.667969v-17.066406h-42.667969zm0 0" data-original="#000000" class="active-path" data-old_color="#ffffff" fill="#c04001"/><path d="m304.460938 222.0625c-3.746094 0-7.492188-1.433594-10.351563-4.285156l-33.605469-33.605469c-2.761718-2.753906-4.289062-6.441406-4.289062-10.355469 0-3.910156 1.527344-7.597656 4.289062-10.351562l15.496094-15.496094c5.710938-5.710938 15.003906-5.710938 20.703125 0l33.605469 33.601562c5.707031 5.726563 5.699218 15.011719 0 20.710938l-15.5 15.496094c-2.847656 2.851562-6.59375 4.285156-10.347656 4.285156zm-30.164063-48.238281 30.171875 30.171875 12.066406-12.066406-30.175781-30.171876zm43.953125 16.390625s-.007812.007812-.007812.007812zm0 0" data-original="#000000" class="active-path" data-old_color="#ffffff" fill="#c04001"/><path d="m301.105469 426.644531h-21.914063c-8.070312 0-14.640625-6.570312-14.640625-14.644531v-21.910156c0-8.074219 6.570313-14.644532 14.640625-14.644532h21.914063c8.074219 0 14.644531 6.570313 14.644531 14.644532v21.910156c0 8.074219-6.570312 14.644531-14.644531 14.644531zm-19.488281-17.066406h17.066406v-17.066406h-17.066406zm0 0" data-original="#000000" class="active-path" data-old_color="#ffffff" fill="#c04001"/><path d="m379.6875 189.5c-3.746094 0-7.492188-1.433594-10.351562-4.285156l-15.496094-15.496094c-2.761719-2.757812-4.28125-6.441406-4.28125-10.351562 0-3.90625 1.527344-7.59375 4.292968-10.351563l15.496094-15.496094c5.707032-5.699219 14.992188-5.699219 20.699219 0l15.503906 15.496094c2.765625 2.757813 4.285157 6.445313 4.285157 10.351563 0 3.910156-1.527344 7.59375-4.292969 10.351562l-15.496094 15.496094c-2.859375 2.851562-6.605469 4.285156-10.359375 4.285156zm-12.054688-30.140625 12.0625 12.066406 12.066407-12.066406-12.066407-12.066406zm0 0" data-original="#000000" class="active-path" data-old_color="#ffffff" fill="#c04001"/><path d="m426.679688 290.113281h-21.914063c-8.070313 0-14.640625-6.570312-14.640625-14.644531v-21.910156c0-8.074219 6.570312-14.644532 14.640625-14.644532h21.914063c8.074218 0 14.644531 6.570313 14.644531 14.644532v21.910156c-.007813 8.074219-6.570313 14.644531-14.644531 14.644531zm-19.496094-17.066406h17.066406v-17.066406h-17.066406zm0 0" data-original="#000000" class="active-path" data-old_color="#ffffff" fill="#c04001"/><path d="m130.441406 247.449219h-21.914062c-8.070313 0-14.640625-6.574219-14.640625-14.644531v-21.914063c0-8.070313 6.570312-14.640625 14.640625-14.640625h21.914062c8.074219 0 14.644532 6.570312 14.644532 14.640625v21.914063c0 8.070312-6.570313 14.644531-14.644532 14.644531zm-19.488281-17.066407h17.066406v-17.066406h-17.066406zm0 0" data-original="#000000" class="active-path" data-old_color="#c04001" fill="#c04001"/><path d="m258.441406 127.984375h-21.914062c-8.074219 0-14.644532-6.570313-14.644532-14.644531v-21.914063c0-8.070312 6.570313-14.640625 14.644532-14.640625h21.914062c8.070313 0 14.640625 6.570313 14.640625 14.640625v21.914063c0 8.074218-6.570312 14.644531-14.640625 14.644531zm-19.492187-17.066406h17.066406v-17.066407h-17.066406zm0 0" data-original="#000000" class="active-path" data-old_color="#ffffff" fill="#c04001"/><path d="m163.328125 452.242188h-20.667969c-8.070312 0-14.640625-6.570313-14.640625-14.640626v-21.914062c0-8.070312 6.570313-14.644531 14.640625-14.644531h30.449219c3.25 0 6.390625 1.136719 9.078125 3.269531 2.96875 2.371094 4.019531 6.425781 2.570312 9.933594l-13.542968 32.722656c-1.324219 3.191406-4.4375 5.273438-7.886719 5.273438zm-18.242187-17.066407h12.535156l7.054687-17.066406h-19.597656v17.066406zm0 0" data-original="#000000" class="active-path" data-old_color="#ffffff" fill="#c04001"/><path d="m107.992188 377.015625c-3.746094 0-7.492188-1.433594-10.351563-4.285156l-23.117187-23.113281c-2.011719-2.015626-2.890626-4.910157-2.335938-7.699219.554688-2.789063 2.472656-5.128907 5.101562-6.21875l34.140626-14.125c3.191406-1.332031 6.863281-.585938 9.292968 1.851562l13.105469 13.109375c2.765625 2.753906 4.292969 6.441406 4.292969 10.347656 0 3.910157-1.527344 7.597657-4.292969 10.351563l-15.496094 15.496094c-2.839843 2.851562-6.59375 4.285156-10.339843 4.285156zm-12.363282-30.429687 12.363282 12.363281 12.066406-12.066407-7.367188-7.355468zm0 0" data-original="#000000" class="active-path" data-old_color="#ffffff" fill="#c04001"/></g></svg>
