<?xml version="1.0"?>
<svg xmlns="http://www.w3.org/2000/svg" id="icons" enable-background="new 0 0 64 64" height="512px" viewBox="0 0 64 64" width="512px"><g><path d="m1.001 37.002c.256 0 .512-.098.707-.293l8.53-8.53 3.774 33.931c.057.507.484.89.994.89h33.986c.51 0 .938-.383.994-.89l3.774-33.931 8.53 8.53c.195.195.451.293.707.293s.512-.098.707-.293c.391-.391.391-1.023 0-1.414l-10.001-10c-.059-.058-.13-.09-.197-.131-.041-.024-.074-.059-.117-.078-.126-.054-.259-.084-.393-.084-.001 0-.001 0-.001 0h-1.04c-.516-6.703-6.123-12.002-12.956-12.002-2.51 0-4.915.714-7.007 2.055-2.021-1.294-4.416-2.055-6.989-2.055-6.834 0-12.442 5.299-12.96 12.002h-1.04s0 0-.001 0c-.134 0-.267.03-.393.084-.043.019-.076.053-.117.078-.067.041-.139.073-.197.131l-10.001 10c-.391.391-.391 1.023 0 1.414.195.195.451.293.707.293zm27.866-12c-.449-1.722-2.004-3.002-3.865-3.002s-3.416 1.28-3.865 3.002h-1.043c.469-2.281 2.491-4.002 4.909-4.002 2.417 0 4.439 1.721 4.907 4.002zm-2.137 0h-3.457c.349-.596.99-1.002 1.729-1.002s1.38.406 1.728 1.002zm5.201 0c-.492-3.388-3.407-6.002-6.928-6.002-3.523 0-6.438 2.614-6.93 6.002h-1.011c.499-3.941 3.866-7.002 7.941-7.002 4.074 0 7.44 3.061 7.938 7.002zm-15.978 2c.014 0 .025.008.039.008s.025-.007.039-.008h2.922c.014 0 .025.008.039.008s.025-.007.039-.008h2.922c.014 0 .025.008.039.008s.025-.007.039-.008h5.941c.014 0 .025.008.039.008s.025-.007.039-.008h2.922c.014 0 .025.008.039.008s.025-.007.039-.008h2.922c.014 0 .025.008.039.008s.025-.007.039-.008h2.922c.014 0 .025.008.039.008s.025-.007.039-.008h4.918c.014 0 .025.008.039.008s.025-.007.039-.008h2.922c.014 0 .025.008.039.008s.025-.007.039-.008h2.922c.014 0 .025.008.039.008s.025-.007.039-.008h2.537l-8.001 8h-10.467c-.038 0-.076-.006-.115-.006s-.077.006-.115.006h-10.467l-8.001-8zm26.91-2c-.449-1.722-2.004-3.002-3.865-3.002-.534 0-1.053.104-1.532.302-.095-.318-.208-.629-.326-.937.589-.235 1.217-.365 1.859-.365 2.417 0 4.439 1.721 4.907 4.002zm3.064 0c-.491-3.388-3.406-6.002-6.928-6.002-.939 0-1.861.192-2.718.553-.17-.294-.343-.585-.533-.864 1.018-.452 2.124-.689 3.251-.689 4.074 0 7.44 3.061 7.938 7.002zm-8.036-.67c.326-.215.708-.332 1.107-.332.739 0 1.38.406 1.729 1.002h-2.766c-.018-.225-.041-.448-.07-.67zm-5.776 12.67c4.909.062 8.885 4.07 8.885 8.994 0 4.963-4.037 9-9 9s-9-4.037-9-9c0-4.924 3.976-8.932 8.885-8.994zm15.984 23.998h-32.198l-3.59-32.275 7.984 7.983c.092.093.203.166.326.217.122.051.252.077.382.077h4.684c-2.83 1.992-4.687 5.277-4.687 8.994 0 6.065 4.935 11 11 11s11-4.935 11-11c0-3.717-1.857-7.002-4.688-8.994h4.685c.13 0 .26-.026.382-.077.123-.051.234-.124.326-.217l7.983-7.982zm-9.1-46c5.73 0 10.446 4.402 10.958 10.002h-1c-.507-5.048-4.779-9.002-9.958-9.002-1.588 0-3.133.396-4.534 1.11-.244-.26-.499-.507-.764-.746 1.616-.891 3.422-1.364 5.298-1.364zm-13.996 0c5.73 0 10.446 4.402 10.958 10.002h-1c-.507-5.048-4.779-9.002-9.958-9.002-5.18 0-9.452 3.954-9.96 9.002h-1c.512-5.6 5.228-10.002 10.96-10.002z" data-original="#000000" class="active-path" data-old_color="#000000" fill="#c04001"/><path d="m23.861 8.624c-.077.336-.31.48-.31.482-.494.247-.694.848-.447 1.342.176.35.529.552.896.552.15 0 .303-.034.446-.105.104-.052 1.025-.542 1.34-1.727.289-1.086-.032-2.338-.955-3.722-.561-.841-.808-1.576-.694-2.069.075-.324.294-.47.332-.494.478-.254.668-.844.425-1.33-.248-.495-.847-.695-1.342-.447-.104.052-1.025.542-1.34 1.727-.289 1.086.032 2.338.955 3.722.561.841.808 1.575.694 2.069z" data-original="#000000" class="active-path" data-old_color="#000000" fill="#c04001"/><path d="m31.862 8.624c-.077.336-.31.48-.31.482-.494.247-.694.848-.447 1.342.176.35.529.552.896.552.15 0 .303-.034.446-.105.104-.052 1.025-.542 1.34-1.727.289-1.086-.032-2.338-.955-3.722-.561-.841-.808-1.576-.694-2.069.075-.324.294-.47.332-.494.478-.254.668-.844.425-1.33-.248-.495-.848-.695-1.342-.447-.104.052-1.025.542-1.34 1.727-.289 1.086.032 2.338.955 3.722.561.841.808 1.575.694 2.069z" data-original="#000000" class="active-path" data-old_color="#000000" fill="#c04001"/><path d="m39.863 8.624c-.077.336-.31.48-.31.482-.494.247-.694.848-.447 1.342.176.35.529.552.896.552.15 0 .303-.034.446-.105.104-.052 1.025-.542 1.34-1.727.289-1.086-.032-2.338-.955-3.722-.561-.841-.808-1.576-.694-2.069.075-.324.294-.47.332-.494.478-.254.668-.844.425-1.33-.248-.495-.848-.695-1.342-.447-.104.052-1.025.542-1.34 1.727-.289 1.086.032 2.338.955 3.722.56.841.808 1.575.694 2.069z" data-original="#000000" class="active-path" data-old_color="#000000" fill="#c04001"/><path d="m27 45.996c0 2.757 2.243 5 5 5s5-2.243 5-5-2.243-5-5-5-5 2.243-5 5zm8 0c0 1.654-1.346 3-3 3s-3-1.346-3-3 1.346-3 3-3 3 1.346 3 3z" data-original="#000000" class="active-path" data-old_color="#000000" fill="#c04001"/></g> </svg>
