<svg viewBox="0 0 185.44 156.54" xmlns="http://www.w3.org/2000/svg"><g transform="translate(-1.8 -8.66)"><path d="m159 94.5a70.7 70.7 0 1 1 -70.7-70.7 70.76 70.76 0 0 1 70.7 70.7" fill="#fddda7"/><path d="m65.6 76.2c1 2.8 4.3 1.6 6.9.3 1.3-.6 3.4-2 5.1-2.2a4.94 4.94 0 0 1 2.5.8 1.87 1.87 0 0 0 2.8-.9s.6.7.1 1.1-1 1.8 1.1 2.3 1.8.9 3.1.6c1.9-.4 3.4-2.1 1.9-3.9a2.8 2.8 0 0 1 1.7 1.5 4.38 4.38 0 0 1 4.3-.3c1.6.7 5.1 2.9 4.4-1.2 4.1 3.7.9 16.2-10.3 9.8-1.7-1-2.6-.9-4.3-.1a40.61 40.61 0 0 1 -6.9 3.1c-7.1 2-14-3.8-12.4-10.9" fill="#3b3a39" fill-rule="evenodd"/><path d="m67.2 44.4c-4.3 5.4-4.5 12-1.2 19.7 0 0 14.1-19.9 34.2-3.4 0 0 2.7-20.4-12-22.1 0 0 7-3 12.2 4.7 12 14.3 24.5-22.4 4.6-32 0 0-10.4-5.1-22.6 2.5 0 0 5 2.1 5.4 4.2-7.3-1.3-13.8-3-18.4-5.5 0 0-15.5-3.2-14.3 17.6 0 0 7.7-2.8 9.5 0-25.4 1.6-27 31.2-4.4 25.7-.1.1 1.8-9.9 7-11.4" fill="#fff"/><path d="m62.8 53.3a21.35 21.35 0 0 1 .8-4.4 24.94 24.94 0 0 0 -2.5 7.1l-.1.6-.6.1c-7 1.7-11.9.2-14.6-2.9a10.38 10.38 0 0 1 -2.5-6 14 14 0 0 1 1.4-7c2.2-4.6 6.9-8.9 14-10.8-1.8.4-3.4.9-3.4.9l-1.2.4-.1-1c-1.3-22 15.4-18.6 15.4-18.6h.2l.1.1a43.11 43.11 0 0 0 8 3.1c2.4.7 5 1.3 7.7 1.8a18.62 18.62 0 0 0 -3.5-2l-1.6-.7 1.5-1c12.7-7.9 23.5-2.6 23.5-2.6 8.9 4.3 11.7 13.8 10.9 22a23 23 0 0 1 -2.8 9.5c-1.5 2.7-3.5 4.7-5.8 5.3-2.5.7-5.3-.2-8-3.4l-.1-.1a10.34 10.34 0 0 0 -6.2-4.6c9.9 5.3 7.8 21.5 7.8 21.6l-.2 1.7-1.3-1.1c-19.3-15.9-32.8 3.2-32.8 3.2l-1 1.4-.7-1.6a23.7 23.7 0 0 1 -2.3-11m5.1-8.3a14.68 14.68 0 0 0 -3.3 8.4 22.25 22.25 0 0 0 1.6 8.8c3.6-4.2 16.2-16.1 33.1-3.4.3-4.8-.1-18-11.3-19.3l-3.7-.4 3.4-1.4s7.7-3.3 13.3 5c2.1 2.5 4.2 3.2 6 2.7s3.4-2.1 4.6-4.4a23.27 23.27 0 0 0 2.5-8.8c.7-7.6-1.8-16.2-9.8-20.1-.1-.1-9.1-4.4-20.2 1.6 1.6.9 4 2.5 4.3 4.1l.3 1.4-1.2-.2c-3.7-.7-7.2-1.4-10.3-2.3a42.24 42.24 0 0 1 -8.3-3.2c-1.5-.2-13.6-1.7-13.1 15.4 2.4-.7 7.7-1.8 9.4.7l.9 1.4-1.7.1c-9.6.6-15.7 5.4-18.1 10.6a12 12 0 0 0 -1.2 6 7.73 7.73 0 0 0 2 4.9c2.2 2.5 6.2 3.7 12.1 2.4.5-2.3 2.7-10.2 7.6-11.6l2.9-.8z" fill="#3b3a39"/><path d="m99.7 88.3c.1 4.8-1.4 7.5-4.5 12.4h-3.2c11.3 2.5 20 10 22.7 19.7-10.5-4.6-25.5-1.4-24.8-17.2-5 19.9 20.8 13.9 26.3 21.4.7.9 1.6 0 1.6-1.2-1.2-11.4-6.4-20-21-23.1 5.3-3.7 5.6-7.6 2.9-12" fill="#3b3a39"/><path d="m91.9 102.3c5.6-.3 8.6 2.3 9.1 7.9a14.15 14.15 0 0 0 -9.1-7.9" fill="#3b3a39"/><path d="m102.1 92.7c14.1-1.5 22.1 4.8 24.2 18.7.2 1.1-2 1.3-3.5.5-2.5-1.4-5.9-1.5-9.2-1.2l-2.2-2.8c4.8-.4 9.2 0 12.1 1.7-2.4-10.1-10.5-14.9-21.4-16.9" fill="#3b3a39"/><path d="m112.7 103.2c-1.8-4.2-5.3-5.9-10-5.9a41.21 41.21 0 0 1 10 5.9" fill="#3b3a39"/><path d="m52.8 62a4.7 4.7 0 0 0 -3.4-2.7c-1.7-.3-3.6.6-5.6 2.7l.1-.6a7.57 7.57 0 0 0 .1-1.5 2.38 2.38 0 0 0 -1.9-2.3 7.15 7.15 0 0 0 -3.1.4c-2 .5-3.1 1.6-3.4 3.2v.1c-.4 2.4.8 5.9 3.5 10.5.8 1.2 1.2 1.8 1.3 1.9h.1a36.77 36.77 0 0 0 4.2-2 34.67 34.67 0 0 0 4-2.4c2.7-1.9 4.1-3.7 4.4-5.1l.1-.3a10.62 10.62 0 0 0 -.4-1.9" fill="#fff"/><path d="m51.7 59.5a7.41 7.41 0 0 1 1.7 2.1l.1.1c.1.4.2.7.3 1a1.7 1.7 0 0 1 0 1l-.1.3a5.18 5.18 0 0 1 -1.5 2.8 23.67 23.67 0 0 1 -3.2 2.9c-.8.6-1.6 1-2.2 1.5s-1.3.7-1.8 1c-.9.5-1.6.9-2.3 1.2s-1.3.6-1.9.9c-.1 0-.2.1-.3.1h-.2c-.2 0-.5-.3-.9-.8-.2-.3-.5-.8-.9-1.4a31.34 31.34 0 0 1 -3-6.2 10.85 10.85 0 0 1 -.6-4.8v-.1a4.66 4.66 0 0 1 1.3-2.5 5.34 5.34 0 0 1 2.6-1.3 5.84 5.84 0 0 1 1.8-.4 4.85 4.85 0 0 1 1.7 0 2.74 2.74 0 0 1 1.8 1 4 4 0 0 1 .8 2v.3a7.54 7.54 0 0 1 1.7-1 5 5 0 0 1 3.1-.5 3.41 3.41 0 0 1 2 .8m.4 2.8a5.34 5.34 0 0 0 -1.3-1.6 3 3 0 0 0 -1.5-.7 3.59 3.59 0 0 0 -2.2.4 8.27 8.27 0 0 0 -2.7 2.1l-1.7 1.7.5-2.9c0-.2.1-.4.1-.6v-.7a3.37 3.37 0 0 0 -.4-1.2 1.27 1.27 0 0 0 -.9-.4 2.44 2.44 0 0 0 -1.2 0 11.31 11.31 0 0 0 -1.5.4h-.1a3.79 3.79 0 0 0 -2 1 2.72 2.72 0 0 0 -.8 1.6v.1a7.65 7.65 0 0 0 .6 4 28.82 28.82 0 0 0 2.9 5.9 12.61 12.61 0 0 0 .9 1.3c.4-.2.9-.4 1.4-.6.7-.3 1.4-.7 2.3-1.2a10.62 10.62 0 0 0 1.7-1c.7-.4 1.4-.9 2.1-1.4a16.45 16.45 0 0 0 3-2.6 4.48 4.48 0 0 0 1.1-2l.1-.3v-.5a1.52 1.52 0 0 1 -.4-.8z" fill="#3b3a39"/><path d="m90.6 67.5c-2.2-.4-2.5.3-3.3 1.2s-.3 1.1 1.1 1.1 4-.2 5.6.5a5.18 5.18 0 0 0 -3.4-2.8" fill="#3b3a39"/><path d="m76.4 70c2.3-.4 3 .5 4 .2.6-.2-.7-2.3-2-2.6s-5.1 1.6-5.1 3.4c.1.4.8-.6 3.1-1" fill="#3b3a39"/><path d="m34.6 74.4h-1.3a43.18 43.18 0 0 1 -6.2-.5 3.16 3.16 0 0 1 -1.7-.6c-.2-.2-.5-.8-.8-.8.6.4 1.2 1.1.9 1.8a2.65 2.65 0 0 1 -.5.6 2 2 0 0 0 -.3 1.1 34.12 34.12 0 0 0 .5 7.8 4 4 0 0 0 .7 1.9 3.38 3.38 0 0 0 1.9.9 3.91 3.91 0 0 0 2.4-.1c1.3-.5 2-2 2.3-3.3a27 27 0 0 1 .8-4.1 3.27 3.27 0 0 1 1.1-1.5h.1a2.69 2.69 0 0 1 1.8-.4 2.87 2.87 0 0 0 0 2.4c.3.8.7 1.5 1 2.3a7 7 0 0 1 -1 5.6c-1 1.7-2.3 3.2-3.2 4.8a14.12 14.12 0 0 0 -1.8 5.7 9.64 9.64 0 0 0 0 2.4c.3 2.2 1.5 4.2 1.5 6.4-9.1 11-12.6 12.8-6.5-.8-.9 1.3-1.7 2.4-2.4 3.5l-2.1-1.5-4.5-9a11.89 11.89 0 0 0 5.1-.5c-10.9 1.8-12.2-15.4-18.5-24.5.7-3.3 1.5-6.5 2.2-9.8 0-.1.1-.2.1-.3s.4-.1.6-.1a2 2 0 0 1 1.4 2.2 13.52 13.52 0 0 1 -.5 2.9c-.3 1.6-.2 3.4 1 4.5 1 .9 2.6 1 3.4 2.2.7 1 .4 2.3.7 3.5.4-3.6-.5-7.3-1-10.9a4.69 4.69 0 0 1 .2-3.1 4.89 4.89 0 0 1 1.6-1.6 40.58 40.58 0 0 0 4.9-4.4 10.85 10.85 0 0 1 -1.5 5.3c-.8 1.7-1.6 3.6-1.1 5.4l.3.9c.3 1 .7 2 1 3.1a18 18 0 0 1 .6 2.2 9.66 9.66 0 0 1 .1 2.4 16.14 16.14 0 0 0 -.4-6.2 9.83 9.83 0 0 1 -.5-1.6c-.4-2.1 1-4.1 2.3-5.8l3.6-4.5a2.65 2.65 0 0 1 .6-.5c.2-.1.6-.1.7.2a.6.6 0 0 1 .1.4c0 1.5.2 3.8-1 4.8-.9.8-1.9 1.6-2.8 2.4-.2.2-.5.4-.6.7a3.4 3.4 0 0 0 -.1 1c.2 2.5.3 4.9.5 7.4a19.18 19.18 0 0 0 1.5-4.8c.2-1 .5-2.2 1.4-2.4a2.46 2.46 0 0 1 1.2.1 7.51 7.51 0 0 0 6.2-.9 8.28 8.28 0 0 0 3.4 5c.3.2.6.4.6.7" fill="#fff" fill-rule="evenodd"/><path d="m97.9 68a7.83 7.83 0 0 0 -2.3-3.8l-.2-.2-.1-.1a14.63 14.63 0 0 0 -1.3-.9 9.8 9.8 0 0 0 -4.8-1.6 1.7 1.7 0 0 0 -.7.1 1.09 1.09 0 0 0 -.8.8 2.79 2.79 0 0 0 .1 1.8 2.18 2.18 0 0 0 .5.8 1.57 1.57 0 0 0 1.5.6 7.69 7.69 0 0 1 3 .3c.2.1.4.1.6.2a5.67 5.67 0 0 1 1.8 1.2 4.3 4.3 0 0 1 .9 1c.2.3.5.8 1 .7.6-.1.9-.5.8-.9" fill="#3b3a39"/><path d="m78.8 65.6a1.62 1.62 0 0 0 1.5-.6 3.51 3.51 0 0 0 .5-.8 2.26 2.26 0 0 0 .1-1.8 1.09 1.09 0 0 0 -.8-.8 1.48 1.48 0 0 0 -.7-.1 9.48 9.48 0 0 0 -4.8 1.6c-.4.3-.9.6-1.3.9l-.1.1-.2.2a7.83 7.83 0 0 0 -2.3 3.8.83.83 0 0 0 .5 1c.5.2.7-.4 1-.7a9 9 0 0 1 .9-1 7.07 7.07 0 0 1 1.8-1.2 1.42 1.42 0 0 1 .6-.2 8 8 0 0 1 3.3-.4z" fill="#3b3a39"/><path d="m84.6 94.3c3.6.1 7.3-.9 7.3-2.5a42.17 42.17 0 0 1 -7.8 1.1c-3.2 0-2.2-1-2.7-.7s-.4 2 3.2 2.1" fill="#3e3c3e"/></g><path d="m135.2 87.84 1-.9 3.4-1.2 2.3-2.1 8.8.7 7.8.8-1.3 2.7-5.8 3.7-5.7 3.1-8-4.5z" fill="#fff" fill-rule="evenodd"/><path d="m144.4 91.7c-.1 4.8-6.1 2.9-5.8 5.1 12.2 7 19.5 12.2 14.7 2.7 5.8 6.8 4.2 7.3 1.3 7.4h.1c-16.1 17.6-29.3 24.8-41.1 8.1 12.7 13.7 22.4 5.3 37-9.2l1.1.3c-3.2-.6-11.7-3.7-16.8-9.9-13.1 11-12.8 6.7-12.8 6.7-.3.8-1.5-1.6-1.5-1.6 5.7-1.4 6.9-2.3 15.1-8.9-.4 3.9 5.2 3.5 6.1-1.1z" fill="#3b3a39" transform="translate(-1.8 -8.66)"/><path d="m65.4 120.5a22.3 22.3 0 0 0 -3.3 2.6c-.9.9-1.8 1.8-2.5 2.6a19.26 19.26 0 0 0 -3.1 5.2 15 15 0 0 0 -1.1 4.8 10.22 10.22 0 0 0 .6 4.3c.2-1.6.5-3.1.8-4.7a22.14 22.14 0 0 1 1.5-4.8 23.88 23.88 0 0 1 2.7-4.9c.6-.8 1.2-1.7 1.9-2.5a29.44 29.44 0 0 1 2.5-2.6" fill="#3b3a39" transform="translate(-1.8 -8.66)"/><path d="m108.7 119.1a15.25 15.25 0 0 1 2.2 2.2c.6.8 1.1 1.6 1.6 2.3a16.16 16.16 0 0 1 1.8 4.7 17.91 17.91 0 0 1 .4 4.5 14.23 14.23 0 0 1 -.8 4.2 31.68 31.68 0 0 0 -.2-4.4 34.69 34.69 0 0 0 -.6-4.5 19.83 19.83 0 0 0 -1.5-4.5 12.68 12.68 0 0 0 -1.2-2.3c-.6-.7-1.1-1.4-1.7-2.2" fill="#3b3a39" transform="translate(-1.8 -8.66)"/><path d="m19.5 98.8a16 16 0 0 0 2.9-.5c-10.9 1.8-12.2-15.4-18.5-24.5.7-3.3 1.5-6.5 2.2-9.8 0-.1.1-.2.1-.3s.4-.1.6-.1a2.43 2.43 0 0 1 1.4 2.4 13.52 13.52 0 0 1 -.5 2.9c-.3 1.6-.2 3.4 1 4.5 1 .9 2.6 1 3.4 2.2.7 1 .4 2.3.7 3.5.4-3.6-.5-7.3-1-10.9a4.69 4.69 0 0 1 .2-3.1 4.89 4.89 0 0 1 1.6-1.6 40.58 40.58 0 0 0 4.9-4.4 10.85 10.85 0 0 1 -1.5 5.3c-.8 1.7-1.6 3.6-1.1 5.4l.3.9c.3 1 .7 2 1 3.1a18 18 0 0 1 .6 2.2 9.66 9.66 0 0 1 .1 2.4 16.14 16.14 0 0 0 -.4-6.2 9.83 9.83 0 0 1 -.5-1.6c-.4-2.1 1-4.1 2.3-5.8l3.6-4.5a2.65 2.65 0 0 1 .6-.5c.2-.1.6-.1.7.2a.6.6 0 0 1 .1.4c0 1.5.2 3.8-1 4.8-.9.8-1.9 1.6-2.8 2.4-.2.2-.5.4-.6.7a3.4 3.4 0 0 0 -.1 1c.2 2.5.3 4.9.5 7.4a19.18 19.18 0 0 0 1.5-4.8c.2-1 .5-2.2 1.4-2.4a2.46 2.46 0 0 1 1.2.1 7.51 7.51 0 0 0 6.2-.9 8.28 8.28 0 0 0 3.4 5c.2.2.5.4.6.6a47.26 47.26 0 0 1 -7.5-.5 3.16 3.16 0 0 1 -1.7-.6c-.2-.2-.5-.8-.8-.8.6.4 1.2 1.1.9 1.8a2.65 2.65 0 0 1 -.5.6 2 2 0 0 0 -.3 1.1 34.12 34.12 0 0 0 .5 7.8 4 4 0 0 0 .7 1.9 3.38 3.38 0 0 0 1.9.9 3.91 3.91 0 0 0 2.4-.1c1.3-.5 2-2 2.3-3.3a27 27 0 0 1 .8-4.1 2.77 2.77 0 0 1 3-2 3.3 3.3 0 0 0 -.1 2.4c.3.8.7 1.5 1 2.3a7 7 0 0 1 -1 5.6c-1 1.7-2.3 3.2-3.2 4.8a14.12 14.12 0 0 0 -1.8 5.7 9.64 9.64 0 0 0 0 2.4c.3 2.2 1.5 4.2 1.5 6.4-8.1 9.8-11.8 12.3-8.1 3.1a4.05 4.05 0 0 1 .9.5l-.7-1c.4-1 .9-2.2 1.5-3.4-.7 1-1.4 1.9-1.9 2.8-2.6-3.3-3.7-4.3-4.9-9.8zm63.1 5.5c-9.7-1.1-15.7-6.5-12.4-15-4.9 3.7-3.9 9.4-.2 12.9l-.1-.1c-10.5 10.1-22.8 4.2-35-4.8.9 3.8-.1 5.7-1.6 1.3-.2-5.4 10.3-10.2 3.4-23.5-3.3.2-5.3 2.9-5.6 8.6-.7 3.9-6.9 2.5-5.5-8.4 4.8 0 10.1.2 11.4-1.9-3.1-.3-3.8-2.7-3.4-5.9l-10.6-.3 2.6-5.5c-.6-5.7-3.1-3.7-5.9-.3.8-3.4.6-5-.6-4.9a27.77 27.77 0 0 1 -9.6 7.6c-.7-1.9-2.2-3-5.1-2.9 0 6.2-2.4 12.6-2.6 14.9 6.6 6 6.2 21.4 15.6 22.7 2.4 5.7 2.5 8.2 6.6 10.6-3.8 6.1-3.2 8.8-.7 8.5h-.1c18.6 15 40.2 14.2 48.3-6.3-9.1 17.4-27.8 16.8-44.4 4.6l-1 .4c3.4-2.2 7.8-7.2 10.9-14.7 14.6 8.9 26.3 10.2 34.4 1.3a11 11 0 0 0 11.2 1.1z" fill="#3b3a39" transform="translate(-1.8 -8.66)"/><path d="m162.8 93.4c-2.8 4.4-6.1 7.7-16.1 9.8a43.91 43.91 0 0 0 13.2-10c-1 .1 0 0-.5.5z" fill="#3b3a39" transform="translate(-1.8 -8.66)"/><path d="m181.7 80.34 2.7-8.2-23.3 7.5-15.5-1.9-7.4-2.5-6.6-1.2-7.1-3.2-1.8-1.3-.6 3.4 3.3 4.6 9.5 4 9.3 2.2 13 1.2h5.9z" fill="#fff"/><path d="m186.9 79.8a7.74 7.74 0 0 0 .1-2.1c-.3-2.3-2.1-3.9-3.6-5.2l-.3-.3a19.85 19.85 0 0 0 -11.3-5.2 8.09 8.09 0 0 0 -2.2 0h-1.3a3.75 3.75 0 0 1 -1.1-.1c-1.4-.3-2.7-.6-4.1-1a31.53 31.53 0 0 0 -7.3-1.4h-1.6a18.63 18.63 0 0 0 -3.4.7 12.49 12.49 0 0 1 -2.9.6h-.1a12.66 12.66 0 0 1 -2.6-.4 16.33 16.33 0 0 0 -3.3-.5 11.06 11.06 0 0 0 -3.7.7 7.84 7.84 0 0 0 -1.8 1.1 6 6 0 0 1 -1.5.9 25.2 25.2 0 0 1 -3.9 1.2c-3.2.9-6.2 1.7-7.4 4.7a7.44 7.44 0 0 0 -.3 1.7 6.75 6.75 0 0 1 -.2 1.4c-.1.4-.2.8-.3 1.1a6.93 6.93 0 0 0 -.3 2 9.15 9.15 0 0 0 .7 2.5 5 5 0 0 1 .5 1.3v.1c6.4 6.3 18.2 10.4 31.7 10.9a66.7 66.7 0 0 0 13.5-.8c4.9-.8 10.5-1.7 14.3-4.6a8.61 8.61 0 0 0 2.9-3.8 6.34 6.34 0 0 0 .3-2.4v-1.3a3.29 3.29 0 0 0 .5-1.8m-56 6.9c-2.8-1.4-5.7-2.8-6.6-6.3 1.7 3.6 5.3 6 10.7 7.1a4.48 4.48 0 0 0 1.1.1h1.1c.5 0 .9.1 1.2.1a19 19 0 0 1 2.9.9c.6.2 1.3.5 2 .7a70.44 70.44 0 0 0 16.5 2.5 45.49 45.49 0 0 0 12.2-1.7l1.4-.3c4.2-1 8.2-1.9 10.9-4.8a2.18 2.18 0 0 0 .4-.5c.2-.2.3-.4.5-.5-.7 2.7-2.9 3.9-5.2 5a29.4 29.4 0 0 1 -7.4 2.1 78.77 78.77 0 0 1 -17 1.2c-9.2-.3-17.7-2.2-23.9-5.3-.3-.1-.5-.2-.8-.3zm47.4-.3a43.7 43.7 0 0 1 -4.9 1.2c-.8.2-1.5.3-2.2.5a47.61 47.61 0 0 1 -13.1 1.4 24.52 24.52 0 0 1 -2.7-.2 77.58 77.58 0 0 1 -15.1-3.2c-1.2-.3-2.5-.5-3.7-.7a23.28 23.28 0 0 1 -3.8-.8c-4-1.3-8.3-3.2-7.8-9.6 1.4-2.9 4.1-3.7 7-4.6l1.1-.3a25.83 25.83 0 0 0 3.1-1.3 15.24 15.24 0 0 1 6.3-1.9h.1a12 12 0 0 1 2 .3 16.6 16.6 0 0 0 2.2.3 14.27 14.27 0 0 0 3.5-.6 16.66 16.66 0 0 1 2.9-.6h2a48.83 48.83 0 0 1 7.8 1.2c.6.1 1.2.3 1.8.4-.1.1-.3.1-.4.2-.4.1-.9.3-1 .6l-.1.2.2.1a5 5 0 0 0 1.2.2 17.85 17.85 0 0 0 2.3-.2 11.14 11.14 0 0 1 1.7-.2 20.22 20.22 0 0 1 10.3 2.9c4.4 2.4 6.7 4.8 6.7 7.1a8.41 8.41 0 0 1 -1.4 4.2 15.41 15.41 0 0 1 -6 3.4z" fill="#3b3a39" transform="translate(-1.8 -8.66)"/><path d="m187.1 76.9a7.74 7.74 0 0 0 .1-2.1c-.3-2.3-2.1-3.9-3.6-5.2l-.3-.3a19.85 19.85 0 0 0 -11.3-5.2 8.09 8.09 0 0 0 -2.2 0h-1.3a3.75 3.75 0 0 1 -1.1-.1c-1.4-.3-2.7-.6-4.1-1a31.53 31.53 0 0 0 -7.3-1.4h-1.6a18.63 18.63 0 0 0 -3.4.7 12.49 12.49 0 0 1 -2.9.6h-.1a12.66 12.66 0 0 1 -2.6-.4 16.33 16.33 0 0 0 -3.3-.5 11.06 11.06 0 0 0 -3.7.7 7.84 7.84 0 0 0 -1.8 1.1 6 6 0 0 1 -1.5.9 25.2 25.2 0 0 1 -3.9 1.2c-3.2.9-6.2 1.7-7.4 4.7a7.44 7.44 0 0 0 -.3 1.7 6.75 6.75 0 0 1 -.2 1.4c-.1.4-.2.8-.3 1.1a6.93 6.93 0 0 0 -.3 2 9.15 9.15 0 0 0 .7 2.5 5 5 0 0 1 .5 1.3v.1c6.4 6.3 18.2 10.4 31.7 10.9a66.7 66.7 0 0 0 13.5-.8c4.9-.8 10.5-1.7 14.3-4.6a8.61 8.61 0 0 0 2.9-3.8 6.34 6.34 0 0 0 .3-2.4v-1.3a4.93 4.93 0 0 0 .5-1.8m-56 6.8c-2.8-1.4-5.7-2.8-6.6-6.3 1.7 3.6 5.3 6 10.7 7.1a4.48 4.48 0 0 0 1.1.1h1.1c.5 0 .9.1 1.2.1a19 19 0 0 1 2.9.9c.6.2 1.3.5 2 .7a65.57 65.57 0 0 0 16.5 2.5 45.49 45.49 0 0 0 12.2-1.7l1.4-.3c4.2-1 8.2-1.9 10.9-4.8a2.18 2.18 0 0 0 .4-.5c.2-.2.3-.4.5-.5-.7 2.7-2.9 3.9-5.2 5a29.4 29.4 0 0 1 -7.4 2.1 78.77 78.77 0 0 1 -17 1.2c-9.2-.3-17.7-2.2-23.9-5.3a1.91 1.91 0 0 1 -.8-.3zm47.4-.2a43.7 43.7 0 0 1 -4.9 1.2c-.8.2-1.5.3-2.2.5a47.61 47.61 0 0 1 -13.1 1.4 24.52 24.52 0 0 1 -2.7-.2 77.58 77.58 0 0 1 -15.1-3.2c-1.2-.3-2.5-.5-3.7-.7a23.28 23.28 0 0 1 -3.8-.8c-4-1.3-8.3-3.2-7.8-9.6 1.4-2.9 4.1-3.7 7-4.6l1.1-.3a25.83 25.83 0 0 0 3.1-1.3 15.24 15.24 0 0 1 6.3-1.9h.1a12 12 0 0 1 2 .3 16.6 16.6 0 0 0 2.2.3 14.27 14.27 0 0 0 3.5-.6 16.66 16.66 0 0 1 2.9-.6h2a48.83 48.83 0 0 1 7.8 1.2c.6.1 1.2.3 1.8.4-.1.1-.3.1-.4.2-.4.1-.9.3-1 .6l-.1.2.2.1a5 5 0 0 0 1.2.2 17.85 17.85 0 0 0 2.3-.2 11.14 11.14 0 0 1 1.7-.2 20.22 20.22 0 0 1 10.3 2.9c4.4 2.4 6.7 4.8 6.7 7.1a8.41 8.41 0 0 1 -1.4 4.2 18.42 18.42 0 0 1 -6 3.4z" fill="#3b3a39" transform="translate(-1.8 -8.66)"/><path d="m165.2 65c.3.3-1.3.5-1.6.9 1.8.5 3.5-.2 5.2-.2a20.21 20.21 0 0 1 10.3 2.9c1.9 1.1 6.7 3.9 6.8 7.3a8.45 8.45 0 0 1 -1.4 4.3 14 14 0 0 1 -5.9 3.6c-2.3.7-4.8 1.2-7.1 1.7a47.79 47.79 0 0 1 -15.9 1.3 91.19 91.19 0 0 1 -15.1-3.2c-2.5-.7-5.2-.8-7.5-1.5-3.9-1.2-8.4-3.2-7.9-9.9 1.6-3.4 4.9-4.1 8.2-5.1 2.8-.9 6.2-3.3 9.4-3.2 1.5 0 2.9.6 4.3.6 2.1 0 4.3-1.1 6.4-1.2 4.2-.2 8 .9 11.8 1.7m14.6 12.6c-2.5-.5-4.7 3.4-7.2 3.3-1.3-.1-2.6-1-4-1.1-3-.4-5.2.2-7.9.4-4.3.3-8.4-2.4-12.6-2.6a23.25 23.25 0 0 0 -3.7.4c-1.1.2-2.5 1-3.5.9-1.3-.1-3-1.6-4.3-2.4a13.48 13.48 0 0 0 -4.6-2.1c-1.3-.2-2.3 0-2.9 1.3 4.7-.7 7.2 3.9 11.1 4.5 1.8.3 4.1-.8 6-.9a17.86 17.86 0 0 1 6.9 1.1 19.91 19.91 0 0 0 6.6 1.6 31.76 31.76 0 0 0 4.3-.6c3.6-.3 6.9.5 10.3 1.1.4-.4-.4-.7-.2-.9 2.3-.7 3.8-2.8 6.5-2.9.2-.8-.5-1-.8-1.1z" fill="#fff" fill-rule="evenodd" transform="translate(-1.8 -8.66)"/><path d="m181.3 78.8a1.27 1.27 0 0 0 -1.1-1.3h-.4a6.06 6.06 0 0 0 -3.5 1.7c-1.1.8-2.2 1.7-3.3 1.6a5.11 5.11 0 0 1 -2-.6 13.89 13.89 0 0 0 -1.9-.6 6.6 6.6 0 0 0 -1.4-.1 18 18 0 0 0 -4.1.3l-2.5.3h-1a23.2 23.2 0 0 1 -5.8-1.3 23.46 23.46 0 0 0 -5.7-1.3 18.71 18.71 0 0 0 -3.7.4 6.47 6.47 0 0 0 -1.3.4 5.85 5.85 0 0 1 -2.2.5 8.37 8.37 0 0 1 -3.1-1.6 10.47 10.47 0 0 1 -1.1-.8l-.1-.1a14 14 0 0 0 -4.5-2.1c-.2 0-.4-.1-.6-.1a2.34 2.34 0 0 0 -2.4 1.4l-.1.3h.3a4.87 4.87 0 0 1 1.2-.1 10.5 10.5 0 0 1 5.4 2.3 11.14 11.14 0 0 0 4.5 2.2h.5a11.07 11.07 0 0 0 3-.5c.9-.2 1.8-.4 2.6-.5a18.47 18.47 0 0 1 6.9 1.1l.1.1a22.26 22.26 0 0 0 6.4 1.6h.1a11.53 11.53 0 0 0 2.6-.3l1.8-.3a9.64 9.64 0 0 1 2.4 0 52.17 52.17 0 0 1 6.6.9 5.85 5.85 0 0 0 1.3.2h.1l.1-.1c.1-.1.2-.2.2-.3a.85.85 0 0 0 -.3-.5 11.88 11.88 0 0 0 2.5-1.3 7.45 7.45 0 0 1 3.9-1.5h-.4z" fill="#3b3a39" transform="translate(-1.8 -8.66)"/><path d="m153.7 72.4c-.7.2-.6.8.1.6 1.5-.5 3.7-.1 4 2.3.1.4 1.3.1 1.2-.4-.3-3.1-3.5-3.1-5.3-2.5" fill="#3b3a39" transform="translate(-1.8 -8.66)"/><path d="m170.8 72.2a2.1 2.1 0 0 1 -3.3.5c-.4-.4-1.6.4-1 .9a3.47 3.47 0 0 0 5.3-.9c.5-.8-.6-1-1-.5" fill="#3b3a39" transform="translate(-1.8 -8.66)"/><path d="m168.2 68.8a.74.74 0 0 0 .1-.9c-.3-.3-.6-.1-.9.1a1.05 1.05 0 0 1 -1.3 0 .64.64 0 0 0 -.9.1c-.2.2-.4.7-.1.9a2.74 2.74 0 0 0 3.1-.2" fill="#3b3a39" transform="translate(-1.8 -8.66)"/><path d="m148.6 67c.5-.5-.7-.3-.9-.1-1 .9-2.4 1.1-3-.4-.2-.4-1.4.1-1.2.4.9 2.4 3.6 1.4 5.1.1" fill="#3b3a39" transform="translate(-1.8 -8.66)"/><path d="m135.6 69.1c-2-1.2-4.4.3-6 2-.6.6.6.8 1 .4 1-1.1 2.7-2.4 4-1.6.4.3 1.6-.5 1-.8" fill="#3b3a39" transform="translate(-1.8 -8.66)"/><path d="m156 75c.5-.5-.7-.3-.9-.1-1 .9-2.4 1.1-3-.4-.2-.4-1.4.1-1.2.4 1 2.4 3.7 1.4 5.1.1" fill="#3b3a39" transform="translate(-1.8 -8.66)"/><path d="m157.3 69.6s-2-3.2-1.8-5.4 4.7-5.3 3.5-7.6-4.1-3.1-3.9-5.7 4.3-8.5 4.3-8.5-4.7 4.5-5.6 7.8a8.45 8.45 0 0 0 2 7.6c1.2 1.3-1.5 3.8-2 5.6s3.5 6.2 3.5 6.2" fill="#3b3a39" transform="translate(-1.8 -8.66)"/><path d="m160.1 69.4a4.66 4.66 0 0 1 -.6-5c1.4-2.7 3.2-3.9 2.9-5.2a8.81 8.81 0 0 0 -1.5-2.8s2.2 1.4 2.4 3.4-2.3 3.3-3 5.7a7.06 7.06 0 0 0 -.2 3.9" fill="#3b3a39" transform="translate(-1.8 -8.66)"/><path d="m152.1 69.5a5.72 5.72 0 0 0 .7-4.5c-.8-2.5-1.9-3.7-1.6-4.8a11.28 11.28 0 0 1 1.1-2.4 5 5 0 0 0 -1.7 2.9c-.2 1.8 1.3 3.1 1.7 5.3a9.94 9.94 0 0 1 -.2 3.5" fill="#3b3a39" transform="translate(-1.8 -8.66)"/><path d="m8 57.34-.3 5.9 1.6.8z" fill="#fff" fill-rule="evenodd"/></svg>