<?xml version="1.0" encoding="utf-8"?>
<!-- Generator: Adobe Illustrator 24.0.0, SVG Export Plug-In . SVG Version: 6.00 Build 0)  -->
<svg version="1.1" id="Слой_1" xmlns="http://www.w3.org/2000/svg" xmlns:xlink="http://www.w3.org/1999/xlink" x="0px" y="0px"
	 viewBox="0 0 468.5 174" style="enable-background:new 0 0 468.5 174;" xml:space="preserve">
<style type="text/css">
	.st0{fill:none;}
	.st1{fill:#FDDDA7;}
	.st2{fill-rule:evenodd;clip-rule:evenodd;fill:#3B3A39;}
	.st3{fill:#FFFFFF;}
	.st4{fill:#3B3A39;}
	.st5{fill-rule:evenodd;clip-rule:evenodd;fill:#FFFFFF;}
	.st6{fill:#3E3C3E;}
	.st7{fill-rule:evenodd;clip-rule:evenodd;fill:#FDDDA7;}
	.st8{fill:#FF7500;}
</style>
<title>logo</title>
<rect x="-63.5" y="-54.1" class="st0" width="841.9" height="595.3"/>
<rect x="-63.5" y="-54.1" class="st0" width="841.9" height="595.3"/>
<g>
	<path class="st1" d="M159,94.5c0,39-31.7,70.7-70.7,70.7s-70.7-31.7-70.7-70.7s31.7-70.7,70.7-70.7S159,55.4,159,94.5"/>
	<path class="st2" d="M65.6,76.2c1,2.8,4.3,1.6,6.9,0.3c1.3-0.6,3.4-2,5.1-2.2c1-0.1,1.8,0.5,2.5,0.8c1.3,0.7,2.4,0.1,2.8-0.9
		c0,0,0.6,0.7,0.1,1.1c-0.4,0.4-1,1.8,1.1,2.3c2.2,0.5,1.8,0.9,3.1,0.6c1.9-0.4,3.4-2.1,1.9-3.9c0.7,0.1,1.4,0.9,1.7,1.5
		c1.2-0.9,2.9-0.9,4.3-0.3c1.6,0.7,5.1,2.9,4.4-1.2c4.1,3.7,0.9,16.2-10.3,9.8c-1.7-1-2.6-0.9-4.3-0.1c-1.9,0.9-4.3,2.4-6.9,3.1
		C70.9,89.1,64,83.3,65.6,76.2"/>
	<path class="st3" d="M67.2,44.4c-4.3,5.4-4.5,12-1.2,19.7c0,0,14.1-19.9,34.2-3.4c0,0,2.7-20.4-12-22.1c0,0,7-3,12.2,4.7
		c12,14.3,24.5-22.4,4.6-32c0,0-10.4-5.1-22.6,2.5c0,0,5,2.1,5.4,4.2c-7.3-1.3-13.8-3-18.4-5.5c0,0-15.5-3.2-14.3,17.6
		c0,0,7.7-2.8,9.5,0c-25.4,1.6-27,31.2-4.4,25.7C60.1,55.9,62,45.9,67.2,44.4"/>
	<path class="st4" d="M62.8,53.3c0.1-1.5,0.4-3,0.8-4.4C61.8,52,61.1,56,61.1,56L61,56.6l-0.6,0.1c-7,1.7-11.9,0.2-14.6-2.9
		c-1.5-1.7-2.3-3.8-2.5-6s0.3-4.6,1.4-7c2.2-4.6,6.9-8.9,14-10.8c-1.8,0.4-3.4,0.9-3.4,0.9l-1.2,0.4l-0.1-1
		c-1.3-22,15.4-18.6,15.4-18.6h0.2l0.1,0.1c2.2,1.2,5,2.2,8,3.1c2.4,0.7,5,1.3,7.7,1.8c-1.4-1.1-3.5-2-3.5-2L80.3,14l1.5-1
		c12.7-7.9,23.5-2.6,23.5-2.6l0,0c8.9,4.3,11.7,13.8,10.9,22c-0.3,3.6-1.3,6.9-2.8,9.5c-1.5,2.7-3.5,4.7-5.8,5.3
		c-2.5,0.7-5.3-0.2-8-3.4l-0.1-0.1c-2-2.9-4.3-4.2-6.2-4.6c9.9,5.3,7.8,21.5,7.8,21.6l-0.2,1.7l-1.3-1.1
		c-19.3-15.9-32.8,3.2-32.8,3.2l-1,1.4l-0.7-1.6C63.4,60.5,62.6,56.8,62.8,53.3 M67.9,45c-2,2.5-3.1,5.3-3.3,8.4
		c-0.1,2.7,0.4,5.7,1.6,8.8c3.6-4.2,16.2-16.1,33.1-3.4c0.3-4.8-0.1-18-11.3-19.3l-3.7-0.4l3.4-1.4c0,0,7.7-3.3,13.3,5
		c2.1,2.5,4.2,3.2,6,2.7s3.4-2.1,4.6-4.4c1.3-2.4,2.2-5.5,2.5-8.8c0.7-7.6-1.8-16.2-9.8-20.1l0,0c-0.1-0.1-9.1-4.4-20.2,1.6
		c1.6,0.9,4,2.5,4.3,4.1l0.3,1.4L87.5,19c-3.7-0.7-7.2-1.4-10.3-2.3c-3.1-0.9-5.9-1.9-8.3-3.2c-1.5-0.2-13.6-1.7-13.1,15.4
		c2.4-0.7,7.7-1.8,9.4,0.7l0.9,1.4l-1.7,0.1c-9.6,0.6-15.7,5.4-18.1,10.6c-0.9,2-1.4,4.1-1.2,6c0.1,1.9,0.8,3.6,2,4.9
		c2.2,2.5,6.2,3.7,12.1,2.4c0.5-2.3,2.7-10.2,7.6-11.6l2.9-0.8L67.9,45z"/>
	<path class="st4" d="M99.7,88.3c0.1,4.8-1.4,7.5-4.5,12.4H92c11.3,2.5,20,10,22.7,19.7c-10.5-4.6-25.5-1.4-24.8-17.2
		c-5,19.9,20.8,13.9,26.3,21.4c0.7,0.9,1.6,0,1.6-1.2c-1.2-11.4-6.4-20-21-23.1C102.1,96.6,102.4,92.7,99.7,88.3"/>
	<path class="st4" d="M91.9,102.3c5.6-0.3,8.6,2.3,9.1,7.9C99,105.9,95.8,103.5,91.9,102.3"/>
	<path class="st4" d="M102.1,92.7c14.1-1.5,22.1,4.8,24.2,18.7c0.2,1.1-2,1.3-3.5,0.5c-2.5-1.4-5.9-1.5-9.2-1.2l-2.2-2.8
		c4.8-0.4,9.2,0,12.1,1.7C121.1,99.5,113,94.7,102.1,92.7"/>
	<path class="st4" d="M112.7,103.2c-1.8-4.2-5.3-5.9-10-5.9C106.4,98.9,109.8,100.8,112.7,103.2"/>
	<path class="st3" d="M52.8,62c-0.9-1.6-2-2.5-3.4-2.7l0,0c-1.7-0.3-3.6,0.6-5.6,2.7l0.1-0.6c0.1-0.5,0.1-1,0.1-1.5
		c-0.2-1.3-0.8-2.1-1.9-2.3c-0.9-0.1-1.9,0-3.1,0.4c-2,0.5-3.1,1.6-3.4,3.2v0.1c-0.4,2.4,0.8,5.9,3.5,10.5c0.8,1.2,1.2,1.8,1.3,1.9
		c0.1,0,0.1,0,0.1,0c1.1-0.4,2.5-1.1,4.2-2c1-0.5,2.4-1.3,4-2.4c2.7-1.9,4.1-3.7,4.4-5.1l0.1-0.3C53.1,63.2,53,62.6,52.8,62"/>
	<path class="st4" d="M51.7,59.5c0.6,0.5,1.2,1.2,1.7,2.1l0.1,0.1c0.1,0.4,0.2,0.7,0.3,1s0.1,0.7,0,1L53.7,64
		c-0.1,0.9-0.6,1.8-1.5,2.8c-0.8,0.9-1.9,1.9-3.2,2.9l0,0c-0.8,0.6-1.6,1-2.2,1.5c-0.7,0.4-1.3,0.7-1.8,1c-0.9,0.5-1.6,0.9-2.3,1.2
		c-0.7,0.3-1.3,0.6-1.9,0.9l0,0c-0.1,0-0.2,0.1-0.3,0.1l0,0c-0.1,0-0.2,0-0.2,0c-0.2,0-0.5-0.3-0.9-0.8c-0.2-0.3-0.5-0.8-0.9-1.4
		l0,0c-1.4-2.3-2.4-4.4-3-6.2c-0.6-1.9-0.8-3.5-0.6-4.8l0,0v-0.1c0.2-1,0.6-1.8,1.3-2.5c0.7-0.6,1.5-1.1,2.6-1.3
		c0.6-0.2,1.2-0.4,1.8-0.4c0.6-0.1,1.1-0.1,1.7,0c0.7,0.1,1.3,0.4,1.8,1c0.4,0.5,0.7,1.2,0.8,2V60v0.2c0.6-0.4,1.1-0.8,1.7-1
		c1.1-0.5,2.1-0.7,3.1-0.5l0,0l0,0C50.3,58.7,51.1,59,51.7,59.5 M52.1,62.3c-0.4-0.7-0.8-1.2-1.3-1.6c-0.5-0.4-0.9-0.6-1.5-0.7l0,0
		l0,0c-0.7-0.1-1.4,0-2.2,0.4c-0.9,0.4-1.8,1.1-2.7,2.1l-1.7,1.7l0.5-2.9c0-0.2,0.1-0.4,0.1-0.6c0-0.2,0-0.4,0-0.7
		c-0.1-0.5-0.2-0.9-0.4-1.2c-0.2-0.2-0.5-0.4-0.9-0.4c-0.4-0.1-0.8-0.1-1.2,0c-0.5,0.1-0.9,0.2-1.5,0.4h-0.1c-0.9,0.2-1.5,0.5-2,1
		c-0.4,0.4-0.7,0.9-0.8,1.6l0,0v0.1c-0.2,1.1,0,2.4,0.6,4c0.6,1.7,1.5,3.7,2.9,5.9c0.4,0.6,0.7,1.1,0.9,1.3l0,0
		c0.4-0.2,0.9-0.4,1.4-0.6c0.7-0.3,1.4-0.7,2.3-1.2l0,0c0.5-0.2,1.1-0.6,1.7-1c0.7-0.4,1.4-0.9,2.1-1.4c1.3-0.9,2.3-1.8,3-2.6
		c0.6-0.7,1-1.4,1.1-2l0.1-0.3c0-0.2,0-0.3,0-0.5C52.2,62.8,52.2,62.6,52.1,62.3z"/>
	<path class="st4" d="M90.6,67.5c-2.2-0.4-2.5,0.3-3.3,1.2c-0.8,0.9-0.3,1.1,1.1,1.1c1.5,0,4-0.2,5.6,0.5
		C94.2,70.4,92.8,67.9,90.6,67.5"/>
	<path class="st4" d="M76.4,70c2.3-0.4,3,0.5,4,0.2c0.6-0.2-0.7-2.3-2-2.6c-1.3-0.2-5.1,1.6-5.1,3.4C73.4,71.4,74.1,70.4,76.4,70"/>
	<path class="st5" d="M34.6,74.4h-1.3c-2.1,0-4.1-0.2-6.2-0.5c-0.6-0.1-1.3-0.2-1.7-0.6c-0.2-0.2-0.5-0.8-0.8-0.8
		c0.6,0.4,1.2,1.1,0.9,1.8c-0.1,0.2-0.3,0.4-0.5,0.6c-0.2,0.3-0.3,0.7-0.3,1.1c-0.1,2.6,0,5.2,0.5,7.8c0.1,0.7,0.3,1.4,0.7,1.9
		c0.5,0.5,1.2,0.8,1.9,0.9c0.8,0.2,1.7,0.2,2.4-0.1c1.3-0.5,2-2,2.3-3.3c0.3-1.4,0.3-2.8,0.8-4.1c0.2-0.6,0.6-1.1,1.1-1.5l0,0h0.1
		l0,0c0.5-0.3,1.1-0.5,1.8-0.4l0,0c-0.4,0.7-0.3,1.6,0,2.4s0.7,1.5,1,2.3c0.6,1.9,0,3.9-1,5.6s-2.3,3.2-3.2,4.8
		c-1,1.7-1.6,3.7-1.8,5.7c-0.1,0.8-0.1,1.6,0,2.4c0.3,2.2,1.5,4.2,1.5,6.4c-9.1,11-12.6,12.8-6.5-0.8c-0.9,1.3-1.7,2.4-2.4,3.5
		l-2.1-1.5l-4.5-9c1.4,0.2,3.1,0.1,5.1-0.5C11.5,100.3,10.2,83.1,3.9,74c0.7-3.3,1.5-6.5,2.2-9.8c0-0.1,0.1-0.2,0.1-0.3
		c0.1-0.1,0.4-0.1,0.6-0.1C7.8,64,8.2,65,8.2,66s-0.3,2-0.5,2.9c-0.3,1.6-0.2,3.4,1,4.5c1,0.9,2.6,1,3.4,2.2c0.7,1,0.4,2.3,0.7,3.5
		c0.4-3.6-0.5-7.3-1-10.9c-0.2-1-0.3-2.2,0.2-3.1c0.4-0.7,1-1.2,1.6-1.6c1.7-1.3,3.4-2.8,4.9-4.4c0.1,1.9-0.7,3.7-1.5,5.3
		c-0.8,1.7-1.6,3.6-1.1,5.4c0.1,0.3,0.2,0.6,0.3,0.9c0.3,1,0.7,2,1,3.1c0.2,0.7,0.5,1.5,0.6,2.2s0.2,1.7,0.1,2.4
		c0.1-2.1,0.3-4.2-0.4-6.2c-0.2-0.5-0.4-1.1-0.5-1.6c-0.4-2.1,1-4.1,2.3-5.8c1.2-1.5,2.4-3,3.6-4.5c0.2-0.2,0.4-0.4,0.6-0.5
		s0.6-0.1,0.7,0.2c0.1,0.1,0.1,0.3,0.1,0.4c0,1.5,0.2,3.8-1,4.8c-0.9,0.8-1.9,1.6-2.8,2.4c-0.2,0.2-0.5,0.4-0.6,0.7
		c-0.1,0.3-0.1,0.7-0.1,1c0.2,2.5,0.3,4.9,0.5,7.4c0.7-1.5,1.2-3.1,1.5-4.8c0.2-1,0.5-2.2,1.4-2.4c0.4-0.1,0.8,0,1.2,0.1
		c2,0.5,4.5,0.4,6.2-0.9c0.4,2,1.7,3.8,3.4,5C34.3,73.9,34.6,74.1,34.6,74.4"/>
	<path class="st4" d="M97.9,68c-0.4-1.5-1.2-2.8-2.3-3.8c-0.1-0.1-0.1-0.1-0.2-0.2l-0.1-0.1c-0.4-0.3-0.8-0.6-1.3-0.9
		c-1.4-0.9-3-1.5-4.8-1.6c-0.2,0-0.5,0-0.7,0.1c-0.4,0.1-0.7,0.4-0.8,0.8l0,0c-0.2,0.6-0.1,1.2,0.1,1.8c0.1,0.3,0.3,0.6,0.5,0.8
		c0.4,0.5,1,0.7,1.5,0.6l0,0c1-0.1,2,0,3,0.3c0.2,0.1,0.4,0.1,0.6,0.2c0.7,0.3,1.3,0.7,1.8,1.2c0.3,0.3,0.7,0.6,0.9,1
		c0.2,0.3,0.5,0.8,1,0.7c0.1,0,0,0,0,0l0,0C97.7,68.8,98,68.4,97.9,68"/>
	<path class="st4" d="M78.8,65.6c0.6,0.1,1.2-0.2,1.5-0.6c0.2-0.3,0.4-0.5,0.5-0.8c0.3-0.6,0.3-1.2,0.1-1.8l0,0
		c-0.1-0.4-0.4-0.7-0.8-0.8c-0.2-0.1-0.4-0.1-0.7-0.1c-1.7,0-3.3,0.7-4.8,1.6c-0.4,0.3-0.9,0.6-1.3,0.9l-0.1,0.1
		c-0.1,0.1-0.1,0.1-0.2,0.2c-1.1,1-1.9,2.3-2.3,3.8c-0.1,0.4,0.1,0.9,0.5,1l0,0c0,0-0.1,0,0,0c0.5,0.2,0.7-0.4,1-0.7
		c0.3-0.4,0.6-0.7,0.9-1c0.5-0.5,1.2-0.9,1.8-1.2c0.2-0.1,0.4-0.2,0.6-0.2C76.8,65.6,77.8,65.5,78.8,65.6L78.8,65.6"/>
	<path class="st6" d="M84.6,94.3c3.6,0.1,7.3-0.9,7.3-2.5c0,0-4.6,1.1-7.8,1.1c-3.2,0-2.2-1-2.7-0.7C80.8,92.6,81,94.2,84.6,94.3"/>
	<polygon class="st5" points="137,96.5 138,95.6 141.4,94.4 143.7,92.3 152.5,93 160.3,93.8 159,96.5 153.2,100.2 147.5,103.3 
		139.5,98.8 	"/>
	<path class="st4" d="M144.4,91.7c-0.1,4.8-6.1,2.9-5.8,5.1c12.2,7,19.5,12.2,14.7,2.7c5.8,6.8,4.2,7.3,1.3,7.4h0.1
		c-16.1,17.6-29.3,24.8-41.1,8.1c12.7,13.7,22.4,5.3,37-9.2l1.1,0.3c-3.2-0.6-11.7-3.7-16.8-9.9c-13.1,11-12.8,6.7-12.8,6.7
		c-0.3,0.8-1.5-1.6-1.5-1.6c5.7-1.4,6.9-2.3,15.1-8.9c-0.4,3.9,5.2,3.5,6.1-1.1L144.4,91.7z"/>
	<path class="st4" d="M65.4,120.5c-1.3,0.8-2.3,1.7-3.3,2.6c-0.9,0.9-1.8,1.8-2.5,2.6c-1.4,1.8-2.5,3.5-3.1,5.2
		c-0.7,1.7-1,3.3-1.1,4.8s0.1,3,0.6,4.3c0.2-1.6,0.5-3.1,0.8-4.7c0.3-1.6,0.8-3.2,1.5-4.8s1.5-3.3,2.7-4.9c0.6-0.8,1.2-1.7,1.9-2.5
		C63.6,122.3,64.4,121.4,65.4,120.5"/>
	<path class="st4" d="M108.7,119.1c0.9,0.7,1.5,1.4,2.2,2.2c0.6,0.8,1.1,1.6,1.6,2.3c0.9,1.6,1.5,3.2,1.8,4.7
		c0.3,1.6,0.5,3.1,0.4,4.5c-0.1,1.5-0.3,2.9-0.8,4.2c0-1.5,0-3-0.2-4.4c-0.1-1.5-0.3-3-0.6-4.5c-0.3-1.5-0.8-3-1.5-4.5
		c-0.3-0.8-0.7-1.5-1.2-2.3C109.8,120.6,109.3,119.9,108.7,119.1"/>
	<path class="st4" d="M19.5,98.8c0.9-0.1,1.9-0.2,2.9-0.5c-10.9,1.8-12.2-15.4-18.5-24.5c0.7-3.3,1.5-6.5,2.2-9.8
		c0-0.1,0.1-0.2,0.1-0.3c0.1-0.1,0.4-0.1,0.6-0.1C7.8,64,8.2,65,8.2,66s-0.3,2-0.5,2.9c-0.3,1.6-0.2,3.4,1,4.5c1,0.9,2.6,1,3.4,2.2
		c0.7,1,0.4,2.3,0.7,3.5c0.4-3.6-0.5-7.3-1-10.9c-0.2-1-0.3-2.2,0.2-3.1c0.4-0.7,1-1.2,1.6-1.6c1.7-1.3,3.4-2.8,4.9-4.4
		c0.1,1.9-0.7,3.7-1.5,5.3c-0.8,1.7-1.6,3.6-1.1,5.4c0.1,0.3,0.2,0.6,0.3,0.9c0.3,1,0.7,2,1,3.1c0.2,0.7,0.5,1.5,0.6,2.2
		s0.2,1.7,0.1,2.4c0.1-2.1,0.3-4.2-0.4-6.2c-0.2-0.5-0.4-1.1-0.5-1.6c-0.4-2.1,1-4.1,2.3-5.8c1.2-1.5,2.4-3,3.6-4.5
		c0.2-0.2,0.4-0.4,0.6-0.5s0.6-0.1,0.7,0.2c0.1,0.1,0.1,0.3,0.1,0.4c0,1.5,0.2,3.8-1,4.8c-0.9,0.8-1.9,1.6-2.8,2.4
		c-0.2,0.2-0.5,0.4-0.6,0.7c-0.1,0.3-0.1,0.7-0.1,1c0.2,2.5,0.3,4.9,0.5,7.4c0.7-1.5,1.2-3.1,1.5-4.8c0.2-1,0.5-2.2,1.4-2.4
		c0.4-0.1,0.8,0,1.2,0.1c2,0.5,4.5,0.4,6.2-0.9c0.4,2,1.7,3.8,3.4,5c0.2,0.2,0.5,0.4,0.6,0.6c-2.5,0-5-0.1-7.5-0.5
		c-0.6-0.1-1.3-0.2-1.7-0.6c-0.2-0.2-0.5-0.8-0.8-0.8c0.6,0.4,1.2,1.1,0.9,1.8c-0.1,0.2-0.3,0.4-0.5,0.6c-0.2,0.3-0.3,0.7-0.3,1.1
		c-0.1,2.6,0,5.2,0.5,7.8c0.1,0.7,0.3,1.4,0.7,1.9c0.5,0.5,1.2,0.8,1.9,0.9c0.8,0.2,1.7,0.2,2.4-0.1c1.3-0.5,2-2,2.3-3.3
		c0.3-1.4,0.3-2.8,0.8-4.1c0.5-1.3,1.7-2.3,3-2c-0.4,0.7-0.3,1.6-0.1,2.4c0.3,0.8,0.7,1.5,1,2.3c0.6,1.9,0,3.9-1,5.6
		s-2.3,3.2-3.2,4.8c-1,1.7-1.6,3.7-1.8,5.7c-0.1,0.8-0.1,1.6,0,2.4c0.3,2.2,1.5,4.2,1.5,6.4c-8.1,9.8-11.8,12.3-8.1,3.1
		c0.3,0.1,0.6,0.3,0.9,0.5l-0.7-1c0.4-1,0.9-2.2,1.5-3.4c-0.7,1-1.4,1.9-1.9,2.8C21.8,105.3,20.7,104.3,19.5,98.8L19.5,98.8z
		 M82.6,104.3c-9.7-1.1-15.7-6.5-12.4-15c-4.9,3.7-3.9,9.4-0.2,12.9l-0.1-0.1c-10.5,10.1-22.8,4.2-35-4.8c0.9,3.8-0.1,5.7-1.6,1.3
		c-0.2-5.4,10.3-10.2,3.4-23.5c-3.3,0.2-5.3,2.9-5.6,8.6c-0.7,3.9-6.9,2.5-5.5-8.4c4.8,0,10.1,0.2,11.4-1.9
		c-3.1-0.3-3.8-2.7-3.4-5.9L23,67.2l2.6-5.5C25,56,22.5,58,19.7,61.4c0.8-3.4,0.6-5-0.6-4.9c-3,3.5-6.2,6.1-9.6,7.6
		c-0.7-1.9-2.2-3-5.1-2.9c0,6.2-2.4,12.6-2.6,14.9c6.6,6,6.2,21.4,15.6,22.7l0,0c2.4,5.7,2.5,8.2,6.6,10.6c-3.8,6.1-3.2,8.8-0.7,8.5
		h-0.1c18.6,15,40.2,14.2,48.3-6.3c-9.1,17.4-27.8,16.8-44.4,4.6l-1,0.4c3.4-2.2,7.8-7.2,10.9-14.7c14.6,8.9,26.3,10.2,34.4,1.3l0,0
		C74.3,105.3,78.4,106.2,82.6,104.3z"/>
	<path class="st4" d="M162.8,93.4c-2.8,4.4-6.1,7.7-16.1,9.8c6.9-3.6,9.6-6.3,13.2-10c-1,0.1,0,0-0.5,0.5L162.8,93.4z"/>
	<polygon class="st3" points="183.5,89 186.2,80.8 162.9,88.3 147.4,86.4 140,83.9 133.4,82.7 126.3,79.5 124.5,78.2 123.9,81.6 
		127.2,86.2 136.7,90.2 146,92.4 159,93.6 164.9,93.6 	"/>
	<path class="st4" d="M186.9,79.8c0.1-0.8,0.2-1.5,0.1-2.1c-0.3-2.3-2.1-3.9-3.6-5.2l-0.3-0.3c-3.4-3-7.4-4.9-11.3-5.2
		c-0.8-0.1-1.5-0.1-2.2,0c-0.4,0-0.8,0-1.3,0c-0.4,0-0.8,0-1.1-0.1c-1.4-0.3-2.7-0.6-4.1-1c-2.2-0.6-4.6-1.3-7.3-1.4
		c-0.5,0-1,0-1.6,0c-1.2,0.1-2.3,0.4-3.4,0.7c-1.1,0.3-2.1,0.6-2.9,0.6h-0.1c-0.8,0-1.7-0.2-2.6-0.4c-1-0.2-2.1-0.5-3.3-0.5
		c-1.3,0-2.6,0.3-3.7,0.7c-0.7,0.3-1.3,0.7-1.8,1.1s-1,0.7-1.5,0.9c-1.2,0.5-2.6,0.9-3.9,1.2c-3.2,0.9-6.2,1.7-7.4,4.7
		c-0.2,0.5-0.2,1-0.3,1.7c0,0.5-0.1,0.9-0.2,1.4c-0.1,0.4-0.2,0.8-0.3,1.1c-0.2,0.7-0.3,1.3-0.3,2c0.1,1,0.4,1.7,0.7,2.5
		c0.2,0.4,0.4,0.8,0.5,1.3v0.1c6.4,6.3,18.2,10.4,31.7,10.9c4.6,0.2,9.2-0.1,13.5-0.8c4.9-0.8,10.5-1.7,14.3-4.6
		c1.1-0.8,2.4-2.3,2.9-3.8c0.3-0.8,0.3-1.5,0.3-2.4c0-0.4,0-0.8,0-1.3C186.8,80.9,186.9,80.4,186.9,79.8 M130.9,86.7
		c-2.8-1.4-5.7-2.8-6.6-6.3c1.7,3.6,5.3,6,10.7,7.1c0.4,0.1,0.8,0.1,1.1,0.1c0.2,0,0.4,0,0.5,0c0.2,0,0.4,0,0.6,0
		c0.5,0,0.9,0.1,1.2,0.1c0.9,0.2,1.9,0.5,2.9,0.9c0.6,0.2,1.3,0.5,2,0.7c4.8,1.4,10.8,2.3,16.5,2.5c4.1,0.1,8.3-0.7,12.2-1.7
		c0.5-0.1,0.9-0.2,1.4-0.3c4.2-1,8.2-1.9,10.9-4.8c0.1-0.1,0.3-0.3,0.4-0.5c0.2-0.2,0.3-0.4,0.5-0.5c-0.7,2.7-2.9,3.9-5.2,5
		s-5.1,1.7-7.4,2.1c-5.3,1-11.2,1.4-17,1.2l0,0c-9.2-0.3-17.7-2.2-23.9-5.3C131.4,86.9,131.2,86.8,130.9,86.7z M178.3,86.4
		c-1.6,0.5-3.3,0.9-4.9,1.2c-0.8,0.2-1.5,0.3-2.2,0.5c-4.8,1.1-9,1.6-13.1,1.4c-0.9,0-1.8-0.1-2.7-0.2c-5.5-0.5-10.3-1.8-15.1-3.2
		c-1.2-0.3-2.5-0.5-3.7-0.7c-1.3-0.2-2.6-0.4-3.8-0.8c-4-1.3-8.3-3.2-7.8-9.6c1.4-2.9,4.1-3.7,7-4.6c0.4-0.1,0.7-0.2,1.1-0.3
		c1-0.3,2-0.8,3.1-1.3c2.1-1,4.2-1.9,6.3-1.9h0.1c0.7,0,1.4,0.2,2,0.3c0.7,0.1,1.5,0.3,2.2,0.3c1.2,0,2.3-0.3,3.5-0.6
		c1-0.3,2-0.5,2.9-0.6c0.6,0,1.3,0,2,0c2.7,0.1,5.3,0.7,7.8,1.2c0.6,0.1,1.2,0.3,1.8,0.4c-0.1,0.1-0.3,0.1-0.4,0.2
		c-0.4,0.1-0.9,0.3-1,0.6l-0.1,0.2l0.2,0.1c0.4,0.1,0.8,0.2,1.2,0.2c0.8,0,1.5-0.1,2.3-0.2c0.6-0.1,1.2-0.2,1.7-0.2
		c3.1-0.1,6.8,0.9,10.3,2.9c4.4,2.4,6.7,4.8,6.7,7.1c0,1.3-0.7,3.3-1.4,4.2C183,84.4,180.3,85.8,178.3,86.4z"/>
	<path class="st4" d="M187.1,76.9c0.1-0.8,0.2-1.5,0.1-2.1c-0.3-2.3-2.1-3.9-3.6-5.2l-0.3-0.3c-3.4-3-7.4-4.9-11.3-5.2
		c-0.8-0.1-1.5-0.1-2.2,0c-0.4,0-0.8,0-1.3,0c-0.4,0-0.8,0-1.1-0.1c-1.4-0.3-2.7-0.6-4.1-1c-2.2-0.6-4.6-1.3-7.3-1.4
		c-0.5,0-1,0-1.6,0c-1.2,0.1-2.3,0.4-3.4,0.7c-1.1,0.3-2.1,0.6-2.9,0.6H148c-0.8,0-1.7-0.2-2.6-0.4c-1-0.2-2.1-0.5-3.3-0.5
		c-1.3,0-2.6,0.3-3.7,0.7c-0.7,0.3-1.3,0.7-1.8,1.1c-0.5,0.4-1,0.7-1.5,0.9c-1.2,0.5-2.6,0.9-3.9,1.2c-3.2,0.9-6.2,1.7-7.4,4.7
		c-0.2,0.5-0.2,1-0.3,1.7c0,0.5-0.1,0.9-0.2,1.4c-0.1,0.4-0.2,0.8-0.3,1.1c-0.2,0.7-0.3,1.3-0.3,2c0.1,1,0.4,1.7,0.7,2.5
		c0.2,0.4,0.4,0.8,0.5,1.3v0.1c6.4,6.3,18.2,10.4,31.7,10.9c4.6,0.2,9.2-0.1,13.5-0.8c4.9-0.8,10.5-1.7,14.3-4.6
		c1.1-0.8,2.4-2.3,2.9-3.8c0.3-0.8,0.3-1.5,0.3-2.4c0-0.4,0-0.8,0-1.3C187,78,187,77.4,187.1,76.9 M131.1,83.7
		c-2.8-1.4-5.7-2.8-6.6-6.3c1.7,3.6,5.3,6,10.7,7.1c0.4,0.1,0.8,0.1,1.1,0.1c0.2,0,0.4,0,0.5,0c0.2,0,0.4,0,0.6,0
		c0.5,0,0.9,0.1,1.2,0.1c0.9,0.2,1.9,0.5,2.9,0.9c0.6,0.2,1.3,0.5,2,0.7c4.8,1.4,10.8,2.4,16.5,2.5c4.1,0.1,8.3-0.7,12.2-1.7
		c0.5-0.1,0.9-0.2,1.4-0.3c4.2-1,8.2-1.9,10.9-4.8c0.1-0.1,0.3-0.3,0.4-0.5c0.2-0.2,0.3-0.4,0.5-0.5c-0.7,2.7-2.9,3.9-5.2,5
		s-5.1,1.7-7.4,2.1c-5.3,1-11.2,1.4-17,1.2l0,0c-9.2-0.3-17.7-2.2-23.9-5.3C131.6,84,131.3,83.8,131.1,83.7z M178.5,83.5
		c-1.6,0.5-3.3,0.9-4.9,1.2c-0.8,0.2-1.5,0.3-2.2,0.5c-4.8,1.1-9,1.6-13.1,1.4c-0.9,0-1.8-0.1-2.7-0.2c-5.5-0.5-10.3-1.8-15.1-3.2
		c-1.2-0.3-2.5-0.5-3.7-0.7c-1.3-0.2-2.6-0.4-3.8-0.8c-4-1.3-8.3-3.2-7.8-9.6c1.4-2.9,4.1-3.7,7-4.6c0.4-0.1,0.7-0.2,1.1-0.3
		c1-0.3,2-0.8,3.1-1.3c2.1-1,4.2-1.9,6.3-1.9h0.1c0.7,0,1.4,0.2,2,0.3c0.7,0.1,1.5,0.3,2.2,0.3c1.2,0,2.3-0.3,3.5-0.6
		c1-0.3,2-0.5,2.9-0.6c0.6,0,1.3,0,2,0c2.7,0.1,5.3,0.7,7.8,1.2c0.6,0.1,1.2,0.3,1.8,0.4c-0.1,0.1-0.3,0.1-0.4,0.2
		c-0.4,0.1-0.9,0.3-1,0.6l-0.1,0.2l0.2,0.1c0.4,0.1,0.8,0.2,1.2,0.2c0.8,0,1.5-0.1,2.3-0.2c0.6-0.1,1.2-0.2,1.7-0.2
		c3.1-0.1,6.8,0.9,10.3,2.9c4.4,2.4,6.7,4.8,6.7,7.1c0,1.3-0.7,3.3-1.4,4.2C183.2,81.4,180.5,82.8,178.5,83.5z"/>
	<path class="st5" d="M165.2,65c0.3,0.3-1.3,0.5-1.6,0.9c1.8,0.5,3.5-0.2,5.2-0.2c3.6-0.1,7.4,1.2,10.3,2.9c1.9,1.1,6.7,3.9,6.8,7.3
		c0,1.4-0.7,3.4-1.4,4.3c-1.2,1.5-3.8,2.9-5.9,3.6c-2.3,0.7-4.8,1.2-7.1,1.7c-4.8,1.1-10,1.9-15.9,1.3c-5.6-0.6-10.4-1.9-15.1-3.2
		c-2.5-0.7-5.2-0.8-7.5-1.5c-3.9-1.2-8.4-3.2-7.9-9.9c1.6-3.4,4.9-4.1,8.2-5.1c2.8-0.9,6.2-3.3,9.4-3.2c1.5,0,2.9,0.6,4.3,0.6
		c2.1,0,4.3-1.1,6.4-1.2C157.6,63.1,161.4,64.2,165.2,65 M179.8,77.6c-2.5-0.5-4.7,3.4-7.2,3.3c-1.3-0.1-2.6-1-4-1.1
		c-3-0.4-5.2,0.2-7.9,0.4c-4.3,0.3-8.4-2.4-12.6-2.6c-1.2,0-2.5,0.2-3.7,0.4c-1.1,0.2-2.5,1-3.5,0.9c-1.3-0.1-3-1.6-4.3-2.4
		c-1.5-0.9-3.1-1.9-4.6-2.1c-1.3-0.2-2.3,0-2.9,1.3c4.7-0.7,7.2,3.9,11.1,4.5c1.8,0.3,4.1-0.8,6-0.9c2.4-0.1,4.7,0.3,6.9,1.1
		c2.2,0.8,4.4,1.6,6.6,1.6c1.4,0,2.9-0.4,4.3-0.6c3.6-0.3,6.9,0.5,10.3,1.1c0.4-0.4-0.4-0.7-0.2-0.9c2.3-0.7,3.8-2.8,6.5-2.9
		C180.8,77.9,180.1,77.7,179.8,77.6z"/>
	<path class="st4" d="M181.3,78.8c-0.1-1.1-0.9-1.3-1.1-1.3c-0.1,0-0.3,0-0.4,0c-1.2,0-2.4,0.8-3.5,1.7c-1.1,0.8-2.2,1.7-3.3,1.6
		c-0.7,0-1.3-0.3-2-0.6c-0.6-0.2-1.3-0.5-1.9-0.6c-0.5-0.1-0.9-0.1-1.4-0.1c-1.5-0.1-2.8,0.1-4.1,0.3c-0.8,0.1-1.6,0.2-2.5,0.3
		c-0.3,0-0.7,0-1,0c-2-0.1-3.9-0.7-5.8-1.3c-1.9-0.6-3.8-1.2-5.7-1.3c-1,0-2.2,0.1-3.7,0.4c-0.4,0.1-0.9,0.2-1.3,0.4
		c-0.7,0.3-1.5,0.5-2.2,0.5c-0.9-0.1-2.1-0.9-3.1-1.6c-0.4-0.3-0.8-0.5-1.1-0.8l-0.1-0.1c-1.5-0.9-3.1-1.9-4.5-2.1
		c-0.2,0-0.4-0.1-0.6-0.1c-1.2,0-1.9,0.4-2.4,1.4l-0.1,0.3h0.3c0.4-0.1,0.8-0.1,1.2-0.1c2.1,0.1,3.8,1.2,5.4,2.3
		c1.4,1,2.8,1.9,4.5,2.2c0.2,0,0.3,0,0.5,0c0.9,0,2-0.2,3-0.5c0.9-0.2,1.8-0.4,2.6-0.5c2.3-0.1,4.6,0.3,6.9,1.1l0.1,0.1
		c2.2,0.8,4.3,1.5,6.4,1.6h0.1c0.9,0,1.7-0.1,2.6-0.3c0.6-0.1,1.2-0.2,1.8-0.3c0.8-0.1,1.6-0.1,2.4,0c2.2,0.1,4.3,0.5,6.6,0.9
		c0.4,0.1,0.9,0.2,1.3,0.2h0.1l0.1-0.1c0.1-0.1,0.2-0.2,0.2-0.3c0-0.2-0.2-0.4-0.3-0.5l0,0c0.9-0.3,1.7-0.8,2.5-1.3
		c1.2-0.7,2.3-1.5,3.9-1.5h0.2L181.3,78.8z"/>
	<path class="st4" d="M153.7,72.4c-0.7,0.2-0.6,0.8,0.1,0.6c1.5-0.5,3.7-0.1,4,2.3c0.1,0.4,1.3,0.1,1.2-0.4
		C158.7,71.8,155.5,71.8,153.7,72.4"/>
	<path class="st4" d="M170.8,72.2c-0.9,1.3-2.2,1.4-3.3,0.5c-0.4-0.4-1.6,0.4-1,0.9c1.6,1.4,4,1.1,5.3-0.9
		C172.3,71.9,171.2,71.7,170.8,72.2"/>
	<path class="st4" d="M168.2,68.8c0.2-0.2,0.3-0.6,0.1-0.9c-0.3-0.3-0.6-0.1-0.9,0.1c-0.4,0.3-0.9,0.3-1.3,0
		c-0.3-0.2-0.6-0.2-0.9,0.1c-0.2,0.2-0.4,0.7-0.1,0.9C166,69.6,167.1,69.5,168.2,68.8"/>
	<path class="st4" d="M148.6,67c0.5-0.5-0.7-0.3-0.9-0.1c-1,0.9-2.4,1.1-3-0.4c-0.2-0.4-1.4,0.1-1.2,0.4
		C144.4,69.3,147.1,68.3,148.6,67"/>
	<path class="st4" d="M135.6,69.1c-2-1.2-4.4,0.3-6,2c-0.6,0.6,0.6,0.8,1,0.4c1-1.1,2.7-2.4,4-1.6C135,70.2,136.2,69.4,135.6,69.1"
		/>
	<path class="st4" d="M156,75c0.5-0.5-0.7-0.3-0.9-0.1c-1,0.9-2.4,1.1-3-0.4c-0.2-0.4-1.4,0.1-1.2,0.4C151.9,77.3,154.6,76.3,156,75
		"/>
	<path class="st4" d="M157.3,69.6c0,0-2-3.2-1.8-5.4c0.3-2.2,4.7-5.3,3.5-7.6s-4.1-3.1-3.9-5.7c0.2-2.6,4.3-8.5,4.3-8.5
		s-4.7,4.5-5.6,7.8c-0.9,3.3,0.8,6.3,2,7.6s-1.5,3.8-2,5.6C153.4,65.1,157.3,69.6,157.3,69.6"/>
	<path class="st4" d="M160.1,69.4c0,0-2-2.3-0.6-5c1.4-2.7,3.2-3.9,2.9-5.2s-1.5-2.8-1.5-2.8s2.2,1.4,2.4,3.4s-2.3,3.3-3,5.7
		C159.6,67.9,160.1,69.4,160.1,69.4"/>
	<path class="st4" d="M152.1,69.5c0,0,1.4-2,0.7-4.5c-0.8-2.5-1.9-3.7-1.6-4.8c0.3-1.1,1.1-2.4,1.1-2.4s-1.5,1.2-1.7,2.9
		c-0.2,1.8,1.3,3.1,1.7,5.3C152.5,68.2,152.1,69.5,152.1,69.5"/>
	<polygon class="st5" points="9.8,66 9.5,71.9 11.1,72.7 	"/>
</g>
<g>
	<path class="st7" d="M384.9,89.8c0-0.2,0.1-0.3,0.1-0.5c0.4-2.2,0.5-4.7,0.5-6.9c0-2.4,0-5-0.5-7.5c0-0.2-0.1-0.4-0.1-0.7
		c-0.1,0.3-0.1,0.6-0.1,0.7c-0.4,2.3-0.5,4.8-0.5,7.1c0,2.3,0.1,4.7,0.5,6.9C384.8,89.2,384.9,89.5,384.9,89.8 M358.3,72.7
		c0,0.1-0.1,0.2-0.1,0.3c-0.7,2.6-0.8,5.7-0.9,8.4c0,2.7,0,6,0.7,8.6c0,0,0,0,0,0.1c0-0.1,0.1-0.2,0.1-0.2c0.8-2.5,1-5.7,1-8.4
		c0-2.7-0.1-5.8-0.8-8.3C358.4,73,358.3,72.8,358.3,72.7z M234.1,72.7c0,0.1-0.1,0.2-0.1,0.3c-0.7,2.6-0.8,5.7-0.9,8.4
		c0,2.7,0,6,0.7,8.6c0,0,0,0,0,0.1c0-0.1,0.1-0.2,0.1-0.2c0.8-2.5,1-5.7,1-8.4c0-2.7-0.1-5.8-0.8-8.3
		C234.2,73,234.1,72.8,234.1,72.7z M217.1,60.4c0,0.5,0,1,0,1.5c0,2.3,0,4.7,0,7c0,2.9,0.1,5.7,0.2,8.6c0.1,3,0.2,6,0.3,9.1
		c0.1,2,0.1,4,0.2,6c0-0.2,0-0.4,0-0.6c0.1-6.4,0.1-12.8,0-19.2c-0.1-3.2-0.1-6.8-0.4-10L217.1,60.4z M246.4,63.7
		c0-0.1,0-0.2-0.1-0.3l-0.9-4h32.2l-0.8,3.9c-0.1,0.6-0.2,1.3-0.2,1.9c-0.1,1.3-0.1,2.5-0.2,3.8c-0.1,4.2-0.1,8.4-0.1,12.7
		c0,4.3,0,8.6,0.2,12.9c0.1,2,0.1,4.4,0.4,6.4l0.6,3.7h-16.3c-1.1,0.3-2.3,0.4-3.5,0.4c-1.8,0-3.6-0.3-5.2-1.2
		c-1.7-0.9-3.1-2.2-4.1-3.8l0,0c-0.6-1-1-2.1-1.3-3.3c-0.7,1.5-1.5,3-2.5,4.3c-2.2,2.8-5.3,4.3-8.9,4.3c-0.9,0-1.7-0.1-2.6-0.3
		c0,0.6,0.1,1.1,0.1,1.7c0.1,2.5,0.2,5.2,0.6,7.8l0.4,2.7l-17.4,5.9l0.4-4.9c0.1-0.8,0.1-1.7,0.1-2.5c0.1-1.8,0.1-3.5,0.1-5.3
		c0-2,0.1-3.9,0.1-5.9l-16.5,0.1l0.2-3.4c0.1-2.3,0.3-4.5,0.4-6.8c0.1-2.7,0.2-5.5,0.3-8.2c0.1-3,0.1-6,0.2-8.9
		c0.1-2.8,0.1-5.5,0.1-8.3c0-2.2,0-4.4-0.1-6.6c0-1.3-0.1-2.6-0.2-3.9c0-0.2-0.1-0.5-0.1-0.7c-0.4-0.1-0.9-0.1-1.3-0.1
		c-1.2,0-2.4,0-3.6,0h-3.4l0.2-3.4c0.1-1.5,0.1-3.1,0.1-4.7c0-1.5,0-3.2-0.2-4.7l-0.4-3.8l3.8,0.2c1.4,0.1,2.8,0.1,4.1,0.1
		c2.6,0,5.1,0,7.7,0c4,0,8.1,0,12.1-0.2l3.7-0.2l-0.3,3.7c-0.1,1.5-0.2,3.2-0.2,4.7c0,1.6,0,3.1,0.1,4.7l0.2,3.4H221
		c-1.1,0-2.2,0-3.3,0.1c-0.2,0-0.4,0-0.6,0.1c0,0.1,0,0.2,0,0.3v0.1v0.1c0,0.4-0.1,0.8-0.1,1.2h14.2c1.5-0.6,3.2-0.9,4.8-0.9
		c2.9,0,5.6,0.8,7.9,2.6C245,61.7,245.8,62.6,246.4,63.7z M300.8,74.2c-0.2,0-0.4,0-0.6,0s-0.4,0-0.6,0c-0.1,0.8,0,1.8-0.1,2.4
		c-0.1,2.9,0,5.7,0,8.6s0.1,5.8,0.2,8.8c0,1.3,0,2.7,0.1,4.1c0.1,1,0.1,1.9,0.3,2.9c0.1-0.9,0.2-1.9,0.3-2.8
		c0.1-1.2,0.1-2.5,0.2-3.7c0.1-2.8,0.1-5.6,0.2-8.3c0-2.9,0.1-5.7,0.1-8.6C300.9,76.4,300.9,75.3,300.8,74.2z M419.5,59.5h31.4
		l-0.8,3.9c-0.1,0.6-0.2,1.3-0.2,1.9c-0.1,1.3-0.1,2.5-0.2,3.8c-0.1,4.2-0.1,8.4-0.1,12.7c0,4.3,0,8.6,0.2,12.9
		c0.1,2,0.1,4.4,0.4,6.4l0.6,3.7h-16.3c-1.1,0.3-2.3,0.4-3.5,0.4c-1.8,0-3.6-0.3-5.2-1.2c-1.7-0.9-3.1-2.2-4.1-3.8l0,0
		c-1-1.6-1.4-3.4-1.5-5.2c-0.1-1.7-0.1-3.6-0.1-5.3c0-3.6,0-7.2,0-10.8c0-0.7,0-1.4,0-2.1l-2.8-2.5c-0.5-0.2-1.6-0.3-2.1-0.4
		c-0.4,0-1.5-0.1-1.9,0.3l-0.2,0.2l-0.2,0.1c-0.4,0.3-0.6,1-0.7,1.4c-0.4,2.1-0.4,5.1-0.4,7.3c0.1,5.8,0.2,12,1,17.8l0.5,3.6H396
		l0.3-3.5c0.1-0.6,0.1-1.2,0.1-1.8c-0.8,1.3-1.9,2.4-3.1,3.3c-2.5,1.8-5.4,2.6-8.4,2.6l0,0l0,0c-2.9-0.1-5.7-0.8-8.1-2.4
		s-4.1-3.9-5.2-6.5c-0.7,1.7-1.6,3.4-2.7,4.8c-2.2,2.8-5.3,4.3-8.9,4.3c-0.9,0-1.7-0.1-2.6-0.3c0,0.6,0.1,1.1,0.1,1.7
		c0.1,2.1,0.2,4.3,0.5,6.4l0.4,3.6h-16.7l0.1-3.3c0.1-2.9,0.1-5.9,0.1-8.8h-13.1c-1.1,0.3-2.3,0.4-3.5,0.4c-1.8,0-3.6-0.3-5.2-1.2
		c-1.7-0.9-3.1-2.2-4.1-3.8l0,0c0,0,0,0,0-0.1c0,0.4,0.1,0.7,0.1,1.1l0.4,3.6h-32.8l0.7-3.8c0.3-1.7,0.3-3.9,0.4-5.6
		c0.1-4,0.2-7.9,0.2-11.9c0-4.2,0-8.3-0.1-12.5c-0.1-2.5-0.1-5.1-0.4-7.6l-0.4-3.9l3.9,0.3c1.3,0.1,2.7,0.1,4,0.1c2.9,0,5.7,0,8.6,0
		c4.2,0,8.4-0.1,12.6-0.1l-0.1-0.2h28.3v-0.2h14.4c1.5-0.6,3.2-0.9,4.8-0.9c2.9,0,5.6,0.8,7.9,2.6c1.9,1.5,3.1,3.7,3.9,5.9
		c0.1-0.3,0.3-0.6,0.4-0.9c1.2-2.4,2.9-4.4,5.1-5.9s4.6-2.3,7.2-2.3c2.4-0.1,4.7,0.4,6.9,1.7c2.3,1.3,3.9,3.5,5.2,5.8
		c0-1.1-0.1-2.1-0.2-3.1l-0.3-3.4l11.5-0.1C411.1,58.5,415.8,58.5,419.5,59.5z"/>
	<g>
		<path class="st8" d="M439.1,99.4v-1c-1,1.1-2.3,1.9-3.7,2.5c-1.4,0.6-2.9,0.9-4.4,0.9c-1.4,0-2.7-0.3-3.8-0.8
			c-1.1-0.6-2-1.4-2.8-2.6c-0.6-1-1-2.2-1.1-3.8c-0.1-1.5-0.1-6.8-0.1-15.8c0.1-9-0.1-14.4-0.5-16h9.9c-0.4,2.1-0.6,10.2-0.6,24.4
			c0.1,2.3,0.3,4.1,0.6,5.3c0.4,1.2,1,1.8,1.9,1.8c1,0,1.8-0.6,2.4-1.7s0.9-3.5,1-7.1c0-13.7-0.1-21.3-0.3-22.7h9.3
			c-0.4,1.9-0.6,8.2-0.5,18.9c0,10.7,0.2,17.3,0.6,19.8h-8.1C439.1,101.1,439.1,100.5,439.1,99.4 M421.3,63.6l-2.1,8
			c-0.6-0.5-1.8-0.8-3.8-1s-3.5,0.2-4.5,1.2c-0.9,0.7-1.6,1.8-1.9,3.3s-0.5,4.2-0.5,8c0.2,8.2,0.5,14.2,1,18.2h-10.2
			c0.3-3.5,0.5-10.3,0.6-20.2s0-16.3-0.2-19.3l8.1-0.1C414.8,61.7,419.2,62.3,421.3,63.6z M374,93.7c-0.6-1.7-1-3.5-1.2-5.3
			s-0.3-3.7-0.3-5.6s0.1-3.8,0.3-5.6c0.2-1.8,0.4-3.3,0.6-4.4c0.3-1.5,1-3.3,2-5.4c1.1-2,2.4-3.6,4.1-4.8s3.5-1.7,5.5-1.7
			c1.8-0.1,3.5,0.3,5.1,1.2s3.1,2.7,4.4,5.4s2.1,5.4,2.5,8.2c0.3,2.8,0.5,5.1,0.4,7.1c-0.1,1.9-0.2,3.8-0.5,5.7
			c-0.3,1.8-0.7,3.5-1.2,5.1c-1.2,3-2.6,5.1-4.3,6.4c-1.7,1.3-3.8,1.9-6.5,1.9c-2.4-0.1-4.6-0.7-6.4-1.9
			C376.6,98.8,375.1,96.7,374,93.7z M384.9,94.5c0.9,0,1.6-0.3,2.1-1c0.4-0.6,0.8-1.8,1.2-3.6c0.3-1.8,0.5-4.2,0.6-7.4
			c0.1-3.2-0.1-5.9-0.5-8.1s-0.8-3.7-1.3-4.5c-0.4-0.8-1.1-1.2-2-1.2s-1.6,0.4-2,1.2c-0.5,0.8-0.9,2.3-1.3,4.5s-0.6,4.8-0.6,7.8
			s0.2,5.5,0.6,7.4c0.4,2,0.8,3.3,1.2,3.9C383.3,94.2,384,94.5,384.9,94.5z M352.5,65.7l0.6-0.7c0.8-1,1.8-1.9,3.1-2.5
			c1.3-0.6,2.7-0.9,4.2-0.9c2.3,0,4.3,0.6,5.8,1.9c1.6,1.3,2.7,3.4,3.4,6.5c0.4,1.6,0.7,3.3,0.8,5.2c0.2,1.9,0.2,3.8,0.2,5.7
			c0,1.9-0.1,3.7-0.2,5.5c-0.2,1.8-0.4,3.3-0.7,4.5c-0.8,3.4-1.9,6.1-3.5,8.1s-3.7,3-6.3,3c-1,0-1.9-0.2-2.7-0.5
			c-0.7-0.3-1.5-0.8-2.3-1.4l-0.9-0.9c-0.1,1.4,0,3.9,0.2,7.5c0.1,2.7,0.3,4.9,0.5,6.6h-9.8c0.1-4.4,0.2-11.6,0.3-21.5
			c0.1-15.8,0-25.7-0.5-29.5h7.9C352.6,62.8,352.6,63.8,352.5,65.7z M358.1,68.7c-1.4,0-2.4,1.1-3,3.4s-0.9,5.3-1,9.1
			c-0.1,4.1,0.2,7.2,0.8,9.5c0.6,2.3,1.5,3.4,2.8,3.4c1.6,0,2.8-1.1,3.5-3.4s1.1-5.4,1.2-9.3c0.1-3.8-0.2-6.9-0.9-9.2
			C360.9,69.9,359.7,68.7,358.1,68.7z M333.4,99.4v-1c-1,1.1-2.3,1.9-3.7,2.5c-1.4,0.6-2.9,0.9-4.4,0.9c-1.4,0-2.7-0.3-3.8-0.8
			c-1.1-0.6-2-1.4-2.8-2.6c-0.6-1-1-2.2-1.1-3.8c-0.1-1.5-0.1-6.8-0.1-15.8c0.1-9-0.1-14.4-0.5-16h9.9c-0.4,2.1-0.6,10.2-0.6,24.4
			c0.1,2.3,0.3,4.1,0.6,5.3c0.4,1.2,1,1.8,1.9,1.8c1,0,1.8-0.6,2.4-1.7s0.9-3.5,1-7.1c0-13.7-0.1-21.3-0.3-22.7h9.3
			c-0.4,1.9-0.6,8.2-0.5,18.9c0,10.7,0.2,17.3,0.6,19.8h-8.1C333.3,101.1,333.4,100.5,333.4,99.4z M296.6,72.3
			c-0.3,1.2-0.4,5.5-0.2,12.9c0.1,7.4,0.2,11.7,0.3,13c0.1,1.3,0.2,2.3,0.3,3.1h-9.6c0.4-2.1,0.6-8.1,0.7-18.1s-0.1-16.7-0.5-20.4
			c1.3,0.1,5.6,0.1,12.8,0.1c7.2-0.1,11.4-0.1,12.7-0.1c-0.4,2.5-0.7,8.2-0.7,17.1s0,14.3,0.1,16.2s0.2,3.6,0.4,5.1h-9.4
			c0.1-0.9,0.2-1.9,0.3-3c0.1-1.1,0.2-5.2,0.3-12.3c0.1-7.1,0.1-11.6,0-13.4c-0.2-1.2-1.5-1.8-3.8-1.7
			C297.9,71,296.7,71.5,296.6,72.3z M265.9,99.4v-1c-1,1.1-2.3,1.9-3.7,2.5c-1.4,0.6-2.9,0.9-4.4,0.9c-1.4,0-2.7-0.3-3.8-0.8
			c-1.1-0.6-2-1.4-2.8-2.6c-0.6-1-1-2.2-1.1-3.8C250,93,250,87.8,250,78.7c0.1-9-0.1-14.4-0.5-16h9.9c-0.4,2.1-0.6,10.2-0.6,24.4
			c0.1,2.3,0.3,4.1,0.6,5.3c0.4,1.2,1,1.8,1.9,1.8c1,0,1.8-0.6,2.4-1.7s0.9-3.5,1-7.1c0-13.7-0.1-21.3-0.3-22.7h9.3
			c-0.4,1.9-0.6,8.2-0.5,18.9c0,10.7,0.2,17.3,0.6,19.8h-8.1C265.8,101.1,265.9,100.5,265.9,99.4z M228.3,65.7l0.6-0.7
			c0.8-1,1.8-1.9,3.1-2.5s2.7-0.9,4.2-0.9c2.3,0,4.3,0.6,5.8,1.9c1.6,1.3,2.7,3.4,3.4,6.5c0.4,1.6,0.7,3.3,0.8,5.2
			c0.2,1.9,0.2,3.8,0.2,5.7c0,1.9-0.1,3.7-0.2,5.5c-0.2,1.8-0.4,3.3-0.7,4.5c-0.8,3.4-1.9,6.1-3.5,8.1s-3.7,3-6.3,3
			c-1,0-1.9-0.2-2.7-0.5c-0.7-0.3-1.5-0.8-2.3-1.4l-0.9-0.9c-0.1,1.4,0,3.9,0.2,7.5s0.4,6.3,0.7,8.1l-10.2,3.5
			c0.2-1.8,0.3-10.6,0.5-26.5c0.1-15.8,0-25.7-0.5-29.5h7.9C228.5,62.8,228.4,63.8,228.3,65.7z M233.9,68.7c-1.4,0-2.4,1.1-3,3.4
			s-0.9,5.3-1,9.1c-0.1,4.1,0.2,7.2,0.8,9.5s1.5,3.4,2.8,3.4c1.6,0,2.8-1.1,3.5-3.4s1.1-5.4,1.2-9.3c0.1-3.8-0.2-6.9-0.9-9.2
			C236.7,69.9,235.5,68.7,233.9,68.7z M204.6,101.4c0.1-1.9,0.2-4.2,0.4-6.8c0.1-2.6,0.2-5.4,0.3-8.4c0.1-2.9,0.1-5.9,0.2-8.9
			c0.1-3,0.1-5.8,0.1-8.4s0-4.8-0.1-6.7c-0.1-1.9-0.1-3.3-0.2-4.1c-0.1-0.9-0.3-1.7-0.6-2.3s-0.8-1-1.4-1.2
			c-0.7-0.2-1.5-0.3-2.4-0.3c-1,0-2.2,0-3.7,0c0.1-1,0.1-2.7,0.1-4.8c0-2.2-0.1-3.8-0.2-5c1.7,0.1,5.7,0.2,12,0.1
			c6.3,0,10.4-0.1,12.3-0.2c-0.1,1.2-0.2,2.9-0.2,5s0,3.7,0.1,4.8c-1.4,0-2.5,0-3.5,0.1s-1.7,0.2-2.2,0.5s-0.9,0.6-1.1,1
			c-0.2,0.4-0.3,1-0.4,1.8c-0.1,0.8-0.2,2.2-0.2,4.3c0,2,0,4.4,0,7c0,2.7,0.1,5.6,0.2,8.6c0.1,3.1,0.2,6.1,0.3,9.1s0.2,5.7,0.3,8.3
			c0.1,2.5,0.2,4.7,0.3,6.4L204.6,101.4z"/>
	</g>
</g>
</svg>
