<svg xmlns="http://www.w3.org/2000/svg" viewBox="0 0 390.96 388.23"><defs><style>.cls-1,.cls-7{fill:#fddda7;}.cls-2,.cls-4{fill:#3b3a39;}.cls-2,.cls-5,.cls-7{fill-rule:evenodd;}.cls-3,.cls-5{fill:#fff;}.cls-6{fill:#3e3c3e;}.cls-8{fill:#f18a00;}</style></defs><g id="Шар_2" data-name="Шар 2"><g id="Слой_1" data-name="Слой 1"><path class="cls-1" d="M334.33,170.64A140.69,140.69,0,1,1,193.65,30,140.68,140.68,0,0,1,334.33,170.64"/><path class="cls-2" d="M148.51,134.2c2,5.48,8.47,3.25,13.69.6,2.51-1.27,6.67-4.06,10.2-4.44,2-.21,3.5.91,4.88,1.65,2.5,1.34,4.78.23,5.54-1.84,0,0,1.11,1.45.24,2.27s-2,3.52,2.28,4.59,3.54,1.79,6.18,1.25c3.83-.79,6.86-4.13,3.76-7.86a5.29,5.29,0,0,1,3.33,2.89,8.54,8.54,0,0,1,8.54-.6c3.15,1.42,10.09,5.69,8.81-2.3,8.07,7.43,1.73,32.24-20.43,19.55-3.32-1.91-5.15-1.77-8.61-.22-3.84,1.72-8.58,4.85-13.75,6.26-14.19,3.88-27.8-7.51-24.66-21.8"/><path class="cls-3" d="M151.64,71c-8.62,10.69-8.95,23.92-2.48,39.24,0,0,28-39.66,68-6.75,0,0,5.36-40.51-23.91-43.88,0,0,14-5.91,24.3,9.28,23.94,28.48,48.68-44.51,9.1-63.71,0,0-20.62-10.13-45,5.06,0,0,9.9,4.22,10.72,8.44C178,16,164.91,12.75,155.76,7.72c0,0-30.93-6.33-28.45,35,0,0,15.25-5.48,19,0-50.51,3.27-53.71,62-8.66,51.06,0,0,3.71-19.84,14-22.79"/><path class="cls-4" d="M142.86,88.8A32.56,32.56,0,0,1,144.53,80a52.65,52.65,0,0,0-5.06,14.19l-.23,1.19-1.18.29c-13.93,3.39-23.61.37-29-5.68a20.09,20.09,0,0,1-4.92-12,27.87,27.87,0,0,1,2.76-13.84c4.32-9.19,13.63-17.74,27.88-21.44a53.23,53.23,0,0,0-6.85,1.87l-2.36.83-.15-2.5c-2.63-43.79,30.58-37,30.68-37l.3.06.26.14a78,78,0,0,0,16,6.21c4.79,1.37,10,2.57,15.37,3.65A40.29,40.29,0,0,0,181,12l-3.33-1.42,3.07-1.92C206-7.09,227.43,3.46,227.49,3.49h0c17.74,8.6,23.19,27.38,21.65,43.76a49.84,49.84,0,0,1-5.51,19c-3,5.42-7,9.31-11.49,10.6-5.07,1.44-10.63-.32-16-6.73L216,70c-4-5.84-8.49-8.29-12.39-9.17,19.73,10.55,15.45,42.83,15.44,42.94l-.42,3.41L216,105c-38.43-31.63-65.23,6.29-65.31,6.4l-2,2.71L147.42,111c-3.34-7.92-4.93-15.34-4.56-22.18M153.1,72.19A28.66,28.66,0,0,0,146.62,89a44,44,0,0,0,3.1,17.55c7.16-8.28,32.19-32.05,65.88-6.68.51-9.51-.14-35.78-22.54-38.37l-7.32-.84,6.83-2.78s15.33-6.48,26.53,9.92c4.25,5,8.39,6.45,12,5.41s6.7-4.22,9.21-8.78a45.91,45.91,0,0,0,5.07-17.5c1.41-15.06-3.5-32.25-19.54-40h0c-.26-.13-18.17-8.8-40.15,3.23,3.28,1.78,7.95,4.87,8.6,8.21l.53,2.72-2.72-.51c-7.31-1.34-14.26-2.84-20.52-4.63a82.47,82.47,0,0,1-16.48-6.39c-2.91-.48-27-3.41-26,30.68,4.78-1.37,15.27-3.64,18.75,1.48l1.84,2.73-3.29.21c-19.17,1.25-31.2,10.71-36.07,21.07a24.09,24.09,0,0,0-2.4,12,16.37,16.37,0,0,0,4,9.79c4.37,4.92,12.39,7.38,24.13,4.79,1-4.51,5.31-20.23,15.1-23l5.72-1.64Z"/><path class="cls-4" d="M216.46,158.41c.24,9.65-2.75,14.83-9,24.74h-6.4C223.69,188.1,241,203,246.25,222.26c-20.85-9.08-50.69-2.89-49.41-34.23-10,39.59,41.45,27.72,52.37,42.52,1.48,1.86,3.25,0,3.12-2.33-2.37-22.69-12.81-39.72-41.7-45.87,10.51-7.54,11-15.2,5.83-23.94"/><path class="cls-4" d="M200.78,186.14q16.58-.91,18.06,15.67a27.46,27.46,0,0,0-18.06-15.67"/><path class="cls-4" d="M221.14,167.17q41.94-4.46,48.1,37.28c.3,2.2-4.05,2.58-7.06,1-5-2.77-11.65-3-18.28-2.3l-4.3-5.48c9.58-.83,18.22,0,24,3.32-4.8-20.38-20.78-29.9-42.51-33.81"/><path class="cls-4" d="M242.31,188c-3.52-8.4-10.6-11.71-19.94-11.76A89.61,89.61,0,0,1,242.31,188"/><path class="cls-3" d="M123,106q-2.73-4.7-6.67-5.35h0q-5.07-.84-11.22,5.3l.18-1.1a14.68,14.68,0,0,0,.17-3c-.39-2.66-1.68-4.18-3.88-4.54a12.42,12.42,0,0,0-6.1.73q-6,1.47-6.77,6.38l0,.11q-1.2,7.17,7,20.82a29.07,29.07,0,0,0,2.54,3.7.55.55,0,0,0,.29,0,84.68,84.68,0,0,0,8.29-4,72.31,72.31,0,0,0,7.87-4.85q8-5.79,8.71-10.23l.11-.66A6.11,6.11,0,0,0,123,106"/><path class="cls-4" d="M120.93,101.13a14.47,14.47,0,0,1,3.4,4.11l.1.22a9.94,9.94,0,0,1,.57,2.05,6.31,6.31,0,0,1,0,2l-.11.66a11.65,11.65,0,0,1-2.89,5.52,37.47,37.47,0,0,1-6.43,5.71l0,0q-2.44,1.7-4.41,2.89c-1.31.81-2.51,1.49-3.59,2-1.69.91-3.25,1.72-4.66,2.4s-2.66,1.25-3.77,1.7h0a2,2,0,0,1-.66.14h0a3.59,3.59,0,0,1-.47,0c-.48-.09-1.06-.62-1.73-1.59-.45-.66-1.07-1.6-1.85-2.8l0,0a65.32,65.32,0,0,1-6-12.34,20.06,20.06,0,0,1-1.21-9.53h0l0-.11a8.49,8.49,0,0,1,2.56-4.92A11.76,11.76,0,0,1,95,96.55a17.74,17.74,0,0,1,3.53-.83,11.7,11.7,0,0,1,3.3,0,5.76,5.76,0,0,1,3.53,1.93,7.7,7.7,0,0,1,1.61,3.92v.61a18.5,18.5,0,0,1,3.33-2.06,10.38,10.38,0,0,1,6.25-1h0a9.26,9.26,0,0,1,4.35,2m.69,5.55a11.62,11.62,0,0,0-2.61-3.16,6.25,6.25,0,0,0-2.93-1.34H116a7.47,7.47,0,0,0-4.43.77,20.35,20.35,0,0,0-5.45,4.1l-3.39,3.38,1-5.82c.07-.42.11-.84.14-1.28s0-.87,0-1.33a4.44,4.44,0,0,0-.9-2.29,2.69,2.69,0,0,0-1.7-.9,8.9,8.9,0,0,0-2.43,0,14.81,14.81,0,0,0-2.92.7l-.14,0a8.85,8.85,0,0,0-4,2,5.56,5.56,0,0,0-1.64,3.18h0v.11a17.06,17.06,0,0,0,1.09,8A61.43,61.43,0,0,0,97,124.54c.79,1.22,1.38,2.11,1.77,2.68v0c.84-.36,1.76-.78,2.77-1.27,1.35-.66,2.87-1.44,4.53-2.35h0c1-.5,2.11-1.14,3.4-1.94s2.73-1.73,4.26-2.78a34.64,34.64,0,0,0,5.9-5.2,8.92,8.92,0,0,0,2.2-4L122,109a3.64,3.64,0,0,0,0-1A6.26,6.26,0,0,0,121.62,106.68Z"/><path class="cls-4" d="M198.26,116.94c-4.42-.86-5,.62-6.64,2.46s-.67,2.15,2.28,2.15,8-.3,11.06,1c.42.17-2.27-4.74-6.7-5.6"/><path class="cls-4" d="M170,122c4.61-.79,6,1,8,.43,1.13-.3-1.41-4.67-3.93-5.16S164,120.45,164,124c0,.62,1.42-1.23,6-2"/><path class="cls-5" d="M86.88,130.72H84.32A99.09,99.09,0,0,1,72,129.78a5.9,5.9,0,0,1-3.43-1.27c-.49-.48-1-1.54-1.66-1.49,1.14.85,2.41,2.24,1.72,3.49a10.54,10.54,0,0,1-1,1.13,3.94,3.94,0,0,0-.54,2.12,65.72,65.72,0,0,0,1,15.53,7.72,7.72,0,0,0,1.48,3.81,6.77,6.77,0,0,0,3.8,1.88,8.4,8.4,0,0,0,4.82-.15c2.57-1,3.93-3.9,4.48-6.63s.59-5.59,1.64-8.17a7.1,7.1,0,0,1,2.21-3l.09-.08.1-.07.1-.07a4.77,4.77,0,0,1,3.54-.78v0a5.58,5.58,0,0,0-.08,4.73c.56,1.54,1.44,3,1.92,4.53,1.14,3.69-.09,7.73-2,11.08s-4.51,6.27-6.43,9.62a28.43,28.43,0,0,0-3.6,11.39,20.83,20.83,0,0,0,.06,4.67c.62,4.36,3,8.39,3.09,12.8-18.18,21.92-25.05,25.54-12.9-1.65-1.85,2.52-3.42,4.83-4.73,6.94l-4.21-3-9-18a24.41,24.41,0,0,0,10.1-1c-21.67,3.63-24.3-30.68-36.83-48.67q2.2-9.77,4.4-19.54a1.31,1.31,0,0,1,.27-.64,1.09,1.09,0,0,1,1.16-.12c1.86.66,2.81,2.81,2.83,4.78a27,27,0,0,1-1.08,5.81c-.67,3.11-.46,6.78,1.92,8.88,2,1.78,5.23,2.08,6.69,4.35,1.32,2,.89,4.5,1.41,6.86.75-7.24-.94-14.48-2-21.69-.3-2.06-.53-4.28.45-6.11A10.93,10.93,0,0,1,45,108.91a81.22,81.22,0,0,0,9.72-8.72c.3,3.73-1.47,7.27-3.07,10.64s-3.1,7.12-2.27,10.76c.13.58.32,1.14.5,1.7l2,6.08a37.1,37.1,0,0,1,1.26,4.38,20.84,20.84,0,0,1,.24,4.86c.26-4.12.51-8.37-.78-12.29a27,27,0,0,1-1-3.23c-.82-4.18,2-8.12,4.62-11.45l7.13-9a3.5,3.5,0,0,1,1.21-1.09,1.16,1.16,0,0,1,1.45.35,1.74,1.74,0,0,1,.13.88c-.09,3.08.39,7.47-1.93,9.49l-5.56,4.87a4.09,4.09,0,0,0-1.15,1.34,4.17,4.17,0,0,0-.2,2l1,14.73a43.32,43.32,0,0,0,3-9.5c.37-1.93,1-4.31,2.88-4.76a5.19,5.19,0,0,1,2.46.24c4.07,1,8.92.8,12.29-1.71a16.31,16.31,0,0,0,6.76,9.9c.5.33,1.06.7,1.18,1.29"/><path class="cls-4" d="M212.68,117.88a16.19,16.19,0,0,0-4.6-7.55l-.37-.35-.2-.16A30.36,30.36,0,0,0,205,108a18.27,18.27,0,0,0-9.48-3.1,4.59,4.59,0,0,0-1.33.18,2.28,2.28,0,0,0-1.54,1.6h0a5.16,5.16,0,0,0,.28,3.59,8.48,8.48,0,0,0,1,1.64,3.46,3.46,0,0,0,3.05,1.2h0a14.14,14.14,0,0,1,5.92.66c.39.13.77.28,1.14.44a14.28,14.28,0,0,1,3.63,2.29,13.67,13.67,0,0,1,1.89,2c.49.62,1,1.68,1.94,1.36.14,0,.07,0,0,0h0a1.66,1.66,0,0,0,1.09-2"/><path class="cls-4" d="M174.86,113.15a3.45,3.45,0,0,0,3-1.2,8.48,8.48,0,0,0,1.05-1.64,5.11,5.11,0,0,0,.28-3.59h0a2.28,2.28,0,0,0-1.53-1.6,4.71,4.71,0,0,0-1.34-.18,18.27,18.27,0,0,0-9.48,3.1c-.88.55-1.72,1.15-2.54,1.78l-.2.16-.37.35a16.27,16.27,0,0,0-4.6,7.55,1.67,1.67,0,0,0,1.09,2h.07c1,.32,1.44-.74,1.93-1.36a13.67,13.67,0,0,1,1.89-2,14.28,14.28,0,0,1,3.63-2.29c.37-.16.75-.31,1.14-.44a14.16,14.16,0,0,1,5.92-.66h0"/><path class="cls-6" d="M186.25,170.29c7.12.29,14.44-1.71,14.53-5,0,0-9.11,2.18-15.47,2.18s-4.38-2.08-5.43-1.32-.76,3.89,6.37,4.17"/><polygon class="cls-5" points="290.56 174.61 292.66 172.84 299.4 170.52 303.82 166.32 321.42 167.72 336.98 169.2 334.27 174.62 322.84 182.13 311.56 188.21 295.53 179.26 290.56 174.61"/><path class="cls-4" d="M305.4,165c-.28,9.48-12.1,5.71-11.48,10.07,24.23,13.84,38.84,24.22,29.25,5.36,11.51,13.49,8.29,14.55,2.5,14.64l.14,0c-32.11,35-58.23,49.36-81.81,16.2,25.25,27.2,44.52,10.53,73.54-18.4l2.12.57c-6.36-1.11-23.24-7.42-33.33-19.63-26.07,21.87-25.44,13.25-25.44,13.25-.61,1.62-3-3.09-3-3.09,11.34-2.79,13.71-4.52,30.09-17.69-.71,7.77,10.36,6.88,12.05-2.21Z"/><path class="cls-4" d="M148.11,222.48a47.37,47.37,0,0,0-6.58,5.16,53.06,53.06,0,0,0-4.95,5.27,41.68,41.68,0,0,0-6.25,10.26,29.2,29.2,0,0,0-2.26,9.54,20.48,20.48,0,0,0,1.22,8.59c.48-3.11.91-6.17,1.61-9.28a58,58,0,0,1,3-9.48,56,56,0,0,1,9.18-14.91,46.66,46.66,0,0,1,5.05-5.15"/><path class="cls-4" d="M234.27,219.68a27.28,27.28,0,0,1,4.29,4.4,36.74,36.74,0,0,1,3.09,4.65,35.31,35.31,0,0,1,3.58,9.37,33,33,0,0,1,.75,9,28.14,28.14,0,0,1-1.68,8.44c-.05-3-.08-5.89-.3-8.84a64.39,64.39,0,0,0-1.28-8.91,48.9,48.9,0,0,0-2.94-9,40.93,40.93,0,0,0-2.33-4.56,30.92,30.92,0,0,0-3.18-4.53"/><path class="cls-4" d="M56.77,179.31a29.45,29.45,0,0,0,5.79-1.09c-21.67,3.63-24.3-30.68-36.83-48.67q2.2-9.77,4.4-19.54a1.31,1.31,0,0,1,.27-.64,1.09,1.09,0,0,1,1.16-.12c1.86.66,2.81,2.81,2.83,4.78a27,27,0,0,1-1.08,5.81c-.67,3.11-.46,6.78,1.92,8.88,2,1.78,5.23,2.08,6.69,4.35,1.32,2,.89,4.5,1.41,6.86.75-7.24-.94-14.48-2-21.69-.3-2.06-.53-4.28.45-6.11A10.93,10.93,0,0,1,45,108.91a81.22,81.22,0,0,0,9.72-8.72c.3,3.73-1.47,7.27-3.07,10.64s-3.1,7.12-2.27,10.76c.13.58.32,1.14.5,1.7l2,6.08a37.1,37.1,0,0,1,1.26,4.38,20.84,20.84,0,0,1,.24,4.86c.26-4.12.51-8.37-.78-12.29a27,27,0,0,1-1-3.23c-.82-4.18,2-8.12,4.62-11.45l7.13-9a3.5,3.5,0,0,1,1.21-1.09,1.16,1.16,0,0,1,1.45.35,1.74,1.74,0,0,1,.13.88c-.09,3.08.39,7.47-1.93,9.49l-5.56,4.87a4.09,4.09,0,0,0-1.15,1.34,4.17,4.17,0,0,0-.2,2l1,14.73a43.32,43.32,0,0,0,3-9.5c.37-1.93,1-4.31,2.88-4.76a5.19,5.19,0,0,1,2.46.24c4.07,1,8.92.8,12.29-1.71a16.31,16.31,0,0,0,6.76,9.9c.5.33,1.06.7,1.18,1.29A98.33,98.33,0,0,1,72,129.78a5.9,5.9,0,0,1-3.43-1.27c-.49-.48-1-1.54-1.66-1.49,1.14.85,2.41,2.24,1.72,3.49a10.54,10.54,0,0,1-1,1.13,3.94,3.94,0,0,0-.54,2.12,65.72,65.72,0,0,0,1,15.53,7.72,7.72,0,0,0,1.48,3.81,6.77,6.77,0,0,0,3.8,1.88,8.4,8.4,0,0,0,4.82-.15c2.57-1,3.93-3.9,4.48-6.63s.59-5.59,1.64-8.17,3.33-4.48,6.06-4a5.58,5.58,0,0,0-.1,4.76c.56,1.54,1.44,3,1.92,4.53,1.14,3.69-.09,7.73-2,11.08s-4.51,6.27-6.43,9.62a28.43,28.43,0,0,0-3.6,11.39,20.83,20.83,0,0,0,.06,4.67c.62,4.36,3,8.39,3.09,12.8-16.19,19.52-23.42,24.53-16.22,6.18.58.3,1.18.6,1.83.9l-1.43-1.9c.82-2,1.78-4.29,2.92-6.83-1.47,2-2.75,3.85-3.87,5.58-5.21-6.72-7.43-8.65-9.73-19.5ZM182.39,190.1C163,188,151.12,177.23,157.77,160.18c-9.79,7.32-7.75,18.64-.38,25.68l-.15-.12c-20.86,20-45.33,8.4-69.73-9.55,1.86,7.58-.11,11.27-3.12,2.52C84.07,168,104.91,158.42,91.23,132c-6.58.46-10.5,5.81-11.16,17.15-1.34,7.67-13.73,4.95-10.86-16.74,9.55-.06,20,.43,22.68-3.71-6.22-.69-7.6-5.28-6.78-11.66l-21.45-.66,5.25-11C67.79,94,62.82,98,57.15,104.75,58.71,98,58.27,94.89,56,95.07c-6,6.88-12.24,12.21-19,15.18-1.32-3.78-4.32-6-10.07-5.72.1,12.35-4.87,25-5.25,29.7,13,11.82,12.35,42.47,30.9,45h-.06c4.75,11.41,4.91,16.25,13.19,21-7.51,12.12-6.37,17.47-1.49,16.82l-.13,0C101,247,144,245.36,160.18,204.61c-18.17,34.65-55.31,33.44-88.29,9.13l-2,.87c6.69-4.38,15.5-14.37,21.68-29.24,29,17.77,52.4,20.24,68.35,2.58l-.09-.07A22.2,22.2,0,0,0,182.39,190.1Z"/><path class="cls-4" d="M341.83,168.42c-5.61,8.76-12.17,15.38-32,19.55,13.83-7.14,19.19-12.61,26.2-19.85-2.06.21,0,0-1,1Z"/><polygon class="cls-3" points="383.05 159.74 388.43 143.47 342.1 158.41 311.2 154.58 296.54 149.61 283.46 147.15 269.25 140.81 265.66 138.21 264.43 144.96 271.14 154.19 290 162.07 308.5 166.57 334.33 168.88 346.07 168.88 383.05 159.74"/><path class="cls-4" d="M390,141.53a15.15,15.15,0,0,0,.28-4.19c-.62-4.55-4.21-7.71-7.09-10.25l-.62-.55c-6.78-6-14.77-9.7-22.5-10.36a42.24,42.24,0,0,0-4.31-.09c-.87,0-1.69,0-2.49,0a16.29,16.29,0,0,1-2.19-.21,78,78,0,0,1-8.2-2.05c-4.46-1.27-9.07-2.6-14.61-2.79-1,0-2.09,0-3.13,0a28.27,28.27,0,0,0-6.81,1.43,20.52,20.52,0,0,1-5.86,1.2h-.28a26.57,26.57,0,0,1-5.14-.87,26.7,26.7,0,0,0-6.5-.94,21.13,21.13,0,0,0-7.3,1.45,19.2,19.2,0,0,0-3.67,2.16,18,18,0,0,1-3,1.8,58.92,58.92,0,0,1-7.71,2.42c-6.37,1.7-12.37,3.3-14.7,9.27a12,12,0,0,0-.55,3.33c-.07.91-.14,1.85-.31,2.85-.15.82-.33,1.55-.51,2.26a12.48,12.48,0,0,0-.55,3.93,12.78,12.78,0,0,0,1.47,4.9,16.57,16.57,0,0,1,1,2.52l.08.13c12.69,12.62,36.24,20.72,63,21.65a135.6,135.6,0,0,0,26.85-1.65c9.82-1.62,20.94-3.46,28.38-9.14,2.13-1.62,4.87-4.65,5.83-7.49a14.64,14.64,0,0,0,.61-4.79c0-.74,0-1.57.08-2.54.07-1.2.24-2.31.4-3.39M278.4,155.09c-5.56-2.74-11.3-5.55-13.1-12.5,3.44,7.21,10.56,12,21.23,14.12a13.21,13.21,0,0,0,2.27.23c.36,0,.72,0,1.08,0l1.13,0a16.88,16.88,0,0,1,2.43.24,37.49,37.49,0,0,1,5.84,1.8c1.28.47,2.59.95,3.89,1.33A138.06,138.06,0,0,0,336,165.44c8.06.28,16.47-1.45,24.35-3.36l2.83-.67c8.37-2,16.28-3.83,21.61-9.46a11.08,11.08,0,0,0,.74-.9,4.62,4.62,0,0,1,1-1.08c-1.38,5.36-5.69,7.72-10.37,9.85A66.22,66.22,0,0,1,361.43,164a155.38,155.38,0,0,1-33.78,2.44h0c-18.38-.65-35.3-4.41-47.63-10.58Zm94.45-.43c-3.1,1-6.48,1.72-9.75,2.43-1.5.32-3,.64-4.42,1a96.53,96.53,0,0,1-26.14,2.87c-1.77-.06-3.57-.18-5.34-.35-11-1.08-20.44-3.63-30-6.36a61.62,61.62,0,0,0-7.35-1.46,50.77,50.77,0,0,1-7.65-1.58c-8-2.51-16.45-6.27-15.48-19.17,2.82-5.82,8.22-7.45,13.95-9.17.71-.22,1.43-.43,2.14-.66a53.61,53.61,0,0,0,6.16-2.55c4.1-1.9,8.35-3.86,12.44-3.77h.17a27,27,0,0,1,4,.56A24.66,24.66,0,0,0,310,117a26.15,26.15,0,0,0,6.87-1.2,29.92,29.92,0,0,1,5.83-1.15c1.29-.07,2.62-.09,3.95,0a82.55,82.55,0,0,1,15.53,2.48c1.21.27,2.41.55,3.62.81-.25.11-.62.24-.89.34a4.62,4.62,0,0,0-2.08,1.09l-.28.37.44.12a9.58,9.58,0,0,0,2.44.38,22.37,22.37,0,0,0,4.5-.43,28.3,28.3,0,0,1,3.46-.41c6.19-.2,13.52,1.86,20.43,5.71,8.75,4.87,13.26,9.64,13.4,14.19a15.9,15.9,0,0,1-2.76,8.36C382.18,150.62,376.83,153.37,372.85,154.66Z"/><path class="cls-4" d="M390.33,135.62a14.74,14.74,0,0,0,.27-4.19c-.62-4.55-4.2-7.71-7.09-10.25l-.62-.55c-6.77-6-14.76-9.71-22.5-10.36-1.52-.13-2.95-.11-4.31-.1-.86,0-1.69,0-2.49,0a16.46,16.46,0,0,1-2.19-.21,78.61,78.61,0,0,1-8.2-2,58.06,58.06,0,0,0-14.6-2.79c-1,0-2.09,0-3.13,0a28.27,28.27,0,0,0-6.81,1.43,20.87,20.87,0,0,1-5.87,1.2h-.28a26.83,26.83,0,0,1-5.14-.87,26.55,26.55,0,0,0-6.49-.94,21.13,21.13,0,0,0-7.3,1.44,18.94,18.94,0,0,0-3.67,2.17,18.75,18.75,0,0,1-3,1.8,62.8,62.8,0,0,1-7.72,2.42c-6.36,1.7-12.37,3.3-14.7,9.27a12,12,0,0,0-.54,3.33,27.62,27.62,0,0,1-.32,2.85c-.14.82-.33,1.55-.5,2.26a12.77,12.77,0,0,0-.56,3.92,13,13,0,0,0,1.47,4.91,18.08,18.08,0,0,1,1,2.51l.08.14c12.68,12.62,36.24,20.71,63,21.65A136.47,136.47,0,0,0,355,163c9.81-1.63,20.93-3.46,28.38-9.14,2.13-1.62,4.86-4.66,5.82-7.49a14.38,14.38,0,0,0,.62-4.79c0-.74,0-1.58.07-2.54.07-1.2.24-2.31.41-3.39M278.76,149.17c-5.57-2.73-11.3-5.54-13.1-12.49,3.43,7.21,10.55,11.95,21.22,14.12a14.4,14.4,0,0,0,2.27.23l1.09,0,1.13,0a17.18,17.18,0,0,1,2.43.24,36.45,36.45,0,0,1,5.84,1.8c1.27.46,2.59.95,3.89,1.33a137.41,137.41,0,0,0,32.87,5.07c8.05.29,16.46-1.44,24.34-3.35l2.83-.67c8.38-2,16.28-3.83,21.62-9.47.25-.27.5-.59.74-.9a4.35,4.35,0,0,1,1-1.07c-1.38,5.35-5.69,7.72-10.37,9.85a65.89,65.89,0,0,1-14.78,4.2A154.7,154.7,0,0,1,328,160.56h0c-18.38-.65-35.29-4.41-47.62-10.58Zm94.44-.43a97.8,97.8,0,0,1-9.75,2.43c-1.5.33-3,.64-4.41,1A96.24,96.24,0,0,1,332.89,155c-1.77-.06-3.56-.18-5.34-.36-11-1.07-20.44-3.62-29.95-6.35a61.38,61.38,0,0,0-7.36-1.46,52,52,0,0,1-7.65-1.58c-8-2.51-16.44-6.27-15.48-19.17,2.82-5.82,8.23-7.45,13.95-9.17l2.15-.66a54.57,54.57,0,0,0,6.15-2.55c4.11-1.9,8.35-3.86,12.45-3.77H302a25.72,25.72,0,0,1,4,.56,25.5,25.5,0,0,0,4.37.57,26.15,26.15,0,0,0,6.88-1.2,29.68,29.68,0,0,1,5.82-1.15c1.29-.07,2.62-.09,3.95,0a82.66,82.66,0,0,1,15.54,2.48l3.61.8a9.17,9.17,0,0,1-.89.35,4.68,4.68,0,0,0-2.08,1.09l-.27.37.44.12a9.58,9.58,0,0,0,2.44.38,23.12,23.12,0,0,0,4.5-.43,26.47,26.47,0,0,1,3.46-.41c6.18-.2,13.51,1.86,20.42,5.71,8.75,4.87,13.26,9.64,13.4,14.18a15.87,15.87,0,0,1-2.75,8.37C382.53,144.71,377.19,147.45,373.2,148.74Z"/><path class="cls-5" d="M346.69,112.05c.5.6-2.56,1-3.21,1.86,3.53,1,6.93-.38,10.3-.48,7.14-.23,14.63,2.45,20.59,5.79,3.77,2.12,13.35,7.71,13.55,14.57a16.36,16.36,0,0,1-2.82,8.65c-2.29,3-7.51,5.79-11.8,7.19-4.53,1.48-9.62,2.36-14.19,3.46a93.34,93.34,0,0,1-31.59,2.55c-11.15-1.1-20.64-3.69-30-6.4-5-1.44-10.26-1.56-15-3.07-7.78-2.46-16.71-6.33-15.69-19.72,3.23-6.78,9.76-8.06,16.32-10.14,5.64-1.8,12.36-6.53,18.7-6.4,2.92.07,5.7,1.12,8.57,1.15,4.25,0,8.45-2.13,12.68-2.38,8.52-.48,16,1.74,23.61,3.37m29,25c-5-1-9.34,6.75-14.3,6.55-2.56-.1-5.2-1.91-7.9-2.25-5.95-.75-10.35.5-15.78.86-8.63.57-16.75-4.84-25-5.11a32.41,32.41,0,0,0-7.38.87c-2.26.49-4.91,1.92-7,1.73-2.49-.23-6-3.18-8.65-4.81-3-1.87-6.2-3.86-9.09-4.27-2.66-.38-4.5.08-5.76,2.62,9.43-1.37,14.28,7.68,22.16,9,3.62.59,8.18-1.68,12-1.83a36.29,36.29,0,0,1,13.78,2.17c4.46,1.6,8.79,3.19,13.12,3.28,2.87.06,5.77-.88,8.65-1.11,7.25-.56,13.72.91,20.5,2.13.86-.81-.84-1.44-.36-1.7,4.65-1.47,7.53-5.48,13-5.75A2.24,2.24,0,0,0,375.71,137.1Z"/><path class="cls-4" d="M378.7,139.41a2.51,2.51,0,0,0-2.28-2.59,4.78,4.78,0,0,0-.76-.09c-2.47-.09-4.77,1.66-7,3.35s-4.32,3.3-6.59,3.22a13.46,13.46,0,0,1-4-1.1,16.41,16.41,0,0,0-3.84-1.13c-.91-.12-1.81-.19-2.73-.22a49.74,49.74,0,0,0-8.21.55c-1.57.2-3.2.4-4.9.51-.65,0-1.32.05-2,0-3.92-.14-7.81-1.38-11.58-2.57s-7.55-2.39-11.41-2.53a32.42,32.42,0,0,0-7.45.86,22.89,22.89,0,0,0-2.62.79,11.52,11.52,0,0,1-4.28.92c-1.75-.16-4.14-1.79-6.24-3.23-.81-.54-1.56-1.06-2.28-1.5l-.23-.14c-3-1.83-6.1-3.73-9-4.13-.44-.06-.84-.1-1.22-.12a4.71,4.71,0,0,0-4.86,2.88l-.27.54.59-.09a12.81,12.81,0,0,1,2.3-.12c4.19.14,7.52,2.41,10.73,4.61,2.78,1.89,5.65,3.85,9,4.39a7.53,7.53,0,0,0,1,.1,22.81,22.81,0,0,0,6-1,26.25,26.25,0,0,1,5.1-.94,36.7,36.7,0,0,1,13.67,2.14l.28.1c4.35,1.56,8.46,3,12.65,3.17h.28a26.48,26.48,0,0,0,5.1-.58c1.18-.21,2.39-.43,3.58-.52a42.5,42.5,0,0,1,4.81-.09,86.39,86.39,0,0,1,13.06,1.74l2.55.46.16,0L366,147a1,1,0,0,0,.35-.69,1.4,1.4,0,0,0-.53-1s0,0,0,0a22.84,22.84,0,0,0,4.89-2.54c2.37-1.49,4.61-2.9,7.78-3.06h.32Z"/><path class="cls-4" d="M323.8,126.65c-1.46.45-1.26,1.66.2,1.2,3-.93,7.44-.1,8,4.63.1.84,2.59.13,2.48-.79-.74-6.12-7.14-6.16-10.7-5"/><path class="cls-4" d="M357.85,126.3c-1.72,2.6-4.45,2.82-6.53,1-.85-.75-3.09.77-2,1.75,3.21,2.82,7.88,2.17,10.51-1.79,1-1.56-1.3-2-2-1"/><path class="cls-4" d="M352.57,119.47a1.24,1.24,0,0,0,.18-1.72,1.28,1.28,0,0,0-1.76.13,2.11,2.11,0,0,1-2.69,0,1.3,1.3,0,0,0-1.77.12c-.38.37-.73,1.31-.18,1.72,2,1.52,4.2,1.31,6.22-.25"/><path class="cls-4" d="M313.59,116c1.08-.93-1.4-.69-1.89-.26-2,1.73-4.7,2.25-6.05-.84-.39-.88-2.71.27-2.48.79,2.12,4.84,7.48,2.84,10.42.31"/><path class="cls-4" d="M287.84,120.16c-4-2.43-8.67.61-11.84,4-1.14,1.25,1.28,1.5,2,.75,2-2.2,5.28-4.77,7.88-3.16.79.48,3.07-1,2-1.62"/><path class="cls-4" d="M328.48,131.87c1.08-.93-1.4-.69-1.89-.27-2,1.73-4.7,2.25-6-.83-.39-.89-2.71.27-2.49.79,2.13,4.83,7.49,2.83,10.43.31"/><path class="cls-4" d="M331.05,121.24S327,115,327.55,110.5s9.29-10.62,6.93-15.18S326.3,89.18,326.67,84s8.58-17,8.58-17S325.83,76,324,82.5s1.61,12.63,4,15.2-3,7.61-3.89,11.07,6.94,12.47,6.94,12.47"/><path class="cls-4" d="M336.48,120.76s-4-4.63-1.14-10,6.43-7.75,5.86-10.27A17,17,0,0,0,338.25,95s4.35,2.86,4.68,6.79-4.62,6.47-6,11.26-.45,7.74-.45,7.74"/><path class="cls-4" d="M320.72,120.87a10.89,10.89,0,0,0,1.3-9c-1.54-5-3.78-7.33-3.28-9.57A17.35,17.35,0,0,1,321,97.55a9.84,9.84,0,0,0-3.44,5.86c-.43,3.52,2.67,6.08,3.31,10.47a18.06,18.06,0,0,1-.13,7"/><path class="cls-4" d="M320.93,380.93a2.62,2.62,0,0,1-2.72-2.72,2.56,2.56,0,0,1,2.72-2.64h3.59v5.36Zm-5.7,6.7V388h2.59l3.46-5.06h3.2V388h2.43V373.46h-6a4.74,4.74,0,0,0-5,4.81,4.46,4.46,0,0,0,3,4.28Zm-3.78.35V373.46H309v5.83h-6.64v-5.83H300V388h2.41v-6.47H309V388Zm-23.91-6.47v-6h3.63a2.78,2.78,0,0,1,2.8,3,2.82,2.82,0,0,1-2.8,3Zm0,6.47v-4.36h3.59a5.08,5.08,0,1,0,0-10.16h-6V388Zm-12.82-10.85,2.53,5.81h-5.08Zm3.3,7.84,1.43,3H282v-.31l-6.68-14.32H274.2l-6.72,14.32V388H270l1.41-3Zm-21.89-11.51h-2.42V388h2.42v-6.12a10.53,10.53,0,0,0,2.72-.23L263,388h2.74v-.35L261,380.68a8.13,8.13,0,0,0,1.89-3.88c.43-1.5,1-1.77,2.4-1.66v-1.66c-3-.56-4.11.75-4.62,2.61-.4,1.52-.81,3-1.66,3.45a7.18,7.18,0,0,1-2.85.35Zm-6.86,0h-8.84V388h9v-2.2H242.9v-4.23H249v-2.14H242.9v-3.84h6.41Zm-25.2,0V388h2.4V375.66h6.62V388h2.43V373.46Zm-15.6,3.67,2.53,5.81H206ZM211.8,385l1.44,3h2.51v-.31l-6.68-14.32H208l-6.73,14.32V388h2.54l1.41-3Zm-21.88-11.51h-2.43V388h2.43v-6.12a10.53,10.53,0,0,0,2.72-.23l4.15,6.35h2.74v-.35l-4.78-6.95a8,8,0,0,0,1.89-3.88c.44-1.5,1-1.77,2.41-1.66v-1.66c-3-.56-4.11.75-4.63,2.61-.39,1.52-.81,3-1.66,3.45a7.1,7.1,0,0,1-2.84.35Zm-11.22,6.91a2.63,2.63,0,0,1,2.78,2.69,2.68,2.68,0,0,1-2.78,2.78c-1.2,0-2.39,0-3.57,0v-5.47Zm-3.57-6.91h-2.36V388h5.93a4.83,4.83,0,0,0,5.1-4.92,4.77,4.77,0,0,0-5.1-4.85h-3.57Zm-20.29,7.27a7.1,7.1,0,0,0,7.37,7.4c2.94,0,5.93-1.56,6.66-5.11h-2.35a4.27,4.27,0,0,1-4.31,2.91,4.92,4.92,0,0,1-4.94-5.2c0-3.1,2-5.26,4.94-5.26a4.3,4.3,0,0,1,4.25,2.66h2.33a6.47,6.47,0,0,0-6.56-4.86,7.15,7.15,0,0,0-7.39,7.46ZM150.78,388V373.46h-2.43v5.83h-6.64v-5.83h-2.4V388h2.4v-6.47h6.64V388Zm-18.61-9.87L132,382.7V388h2.38V373.42h-.87l-8.81,9.75.16-4.43v-5.28h-2.41V388h.83Zm-19.78-2.52V388h2.36V375.59H119v-2.13H108.17v2.13Zm-7.24-2.13H96.31V388h9v-2.2H98.74v-4.23h6.06v-2.14H98.74v-3.84h6.41Zm-26.76,7.27a7.09,7.09,0,0,0,7.36,7.4c3,0,5.94-1.56,6.66-5.11H90.07a4.29,4.29,0,0,1-4.32,2.91,4.92,4.92,0,0,1-4.94-5.2c0-3.1,2-5.26,4.94-5.26A4.32,4.32,0,0,1,90,378.13h2.32a6.46,6.46,0,0,0-6.56-4.86,7.14,7.14,0,0,0-7.38,7.46Zm-15.56,0c0-3.36,2.24-5.25,5-5.25a5.25,5.25,0,0,1,0,10.48C65.05,386,62.83,384.1,62.83,380.72Zm12.35,0a7.4,7.4,0,1,0-7.43,7.51A7.17,7.17,0,0,0,75.18,380.72Z"/><polygon class="cls-5" points="37.51 113.95 36.79 125.72 40.14 127.4 37.51 113.95"/><path class="cls-7" d="M290.77,313.45c.06-.28.1-.52.14-.71a65.7,65.7,0,0,0,.8-10.48,57.26,57.26,0,0,0-.74-11.33c-.05-.28-.12-.67-.21-1.12-.09.45-.17.84-.22,1.12a57.26,57.26,0,0,0-.8,10.86,63.37,63.37,0,0,0,.8,10.48c.06.29.13.71.23,1.18m-40.44-26c-.05.16-.09.3-.11.4a54.63,54.63,0,0,0-1.35,12.69c-.06,4.08,0,9.15,1.09,13.11l0,.11.13-.37c1.21-3.86,1.47-8.71,1.53-12.73A48,48,0,0,0,250.5,288,5.13,5.13,0,0,0,250.33,287.43Zm-188.6,0c0,.16-.09.3-.11.4a54.63,54.63,0,0,0-1.35,12.69c-.05,4.08,0,9.15,1.09,13.11l0,.11c.06-.15.1-.28.13-.37,1.21-3.86,1.48-8.71,1.53-12.73A48,48,0,0,0,61.9,288,5.13,5.13,0,0,0,61.73,287.43ZM35.92,268.7c0,.79,0,1.58,0,2.31q0,5.31.06,10.62.06,6.53.25,13,.18,6.88.44,13.77.16,4.56.32,9.13c0-.32,0-.64,0-1,.08-9.7.13-19.41,0-29.11-.07-4.89-.09-10.26-.64-15.12Zm44.54,5c0-.13,0-.26-.08-.38l-1.4-6H127.9l-1.17,5.84a22.29,22.29,0,0,0-.3,2.82c-.13,1.91-.2,3.84-.25,5.75-.18,6.4-.19,12.82-.17,19.22s.06,13,.26,19.54a85.29,85.29,0,0,0,.62,9.73l.88,5.64H103a22.51,22.51,0,0,1-5.32.63,17.52,17.52,0,0,1-8-1.78A15.72,15.72,0,0,1,83.53,329l0-.08a15.82,15.82,0,0,1-1.93-5,29.68,29.68,0,0,1-3.79,6.52,16.44,16.44,0,0,1-13.46,6.46,17.57,17.57,0,0,1-3.9-.41q.06,1.31.12,2.58a113.51,113.51,0,0,0,1,11.8l.61,4-26.44,9,.68-7.51c.11-1.23.13-2.53.16-3.77.08-2.66.13-5.32.18-8q.07-4.45.13-8.93l-25,.2.3-5.21c.2-3.45.38-6.89.57-10.34q.31-6.25.43-12.51.12-6.78.25-13.56.12-6.3.12-12.6c0-3.36,0-6.73-.12-10.09-.06-2-.1-4-.23-6a10.24,10.24,0,0,0-.21-1.14,15.62,15.62,0,0,0-1.91-.14c-1.81-.06-3.63-.07-5.44-.07H.38l.27-5.14c.13-2.35.12-4.74.12-7.09s0-4.8-.23-7.13L0,239.21l5.73.37c2.06.13,4.18.14,6.24.16,3.9,0,7.79,0,11.69,0,6,0,12.35.05,18.38-.3l5.67-.34-.51,5.66c-.22,2.35-.24,4.8-.24,7.16s0,4.74.12,7.1l.26,5.13H42.2c-1.68,0-3.38,0-5.06.12a9.11,9.11,0,0,0-1,.09c0,.19,0,.36,0,.5l0,.16,0,.16c-.07.56-.12,1.15-.15,1.75H57.58a19.78,19.78,0,0,1,7.35-1.38,18.54,18.54,0,0,1,11.92,4A16.16,16.16,0,0,1,80.46,273.7Zm82.63,16a8.55,8.55,0,0,0-.86,0c-.23,0-.58,0-.95,0-.08,1.28-.07,2.73-.09,3.71-.08,4.33,0,8.68,0,13s.13,8.87.23,13.31c0,2,.06,4.13.2,6.16.09,1.45.2,2.91.39,4.35.18-1.42.33-2.84.47-4.27.18-1.78.18-3.76.23-5.56.12-4.22.19-8.45.25-12.67.07-4.37.13-8.73.13-13.1C163.13,293,163.14,291.32,163.09,289.66Zm180.2-22.34H391l-1.17,5.84a22.29,22.29,0,0,0-.3,2.82c-.13,1.91-.2,3.84-.25,5.75-.19,6.4-.19,12.82-.18,19.22s.07,13,.27,19.54a85.29,85.29,0,0,0,.62,9.73l.88,5.64H366.08a22.63,22.63,0,0,1-5.32.63,17.52,17.52,0,0,1-8-1.78,15.65,15.65,0,0,1-6.21-5.76l0-.08A17.57,17.57,0,0,1,344.2,321c-.19-2.63-.15-5.43-.17-8.06q0-8.19,0-16.37c0-1,0-2.1,0-3.15l-4.18-3.76a15.66,15.66,0,0,0-3.22-.56c-.68-.06-2.3-.14-2.85.41l-.23.23-.26.2a3.83,3.83,0,0,0-1,2.16,63.28,63.28,0,0,0-.6,11.11,268.82,268.82,0,0,0,1.47,27.07l.69,5.49H307.55l.5-5.34c.08-.89.15-1.79.22-2.69a19.31,19.31,0,0,1-17.45,8.91h-.11a23.32,23.32,0,0,1-12.34-3.67,22,22,0,0,1-7.88-9.88,30.12,30.12,0,0,1-4.13,7.34,16.45,16.45,0,0,1-13.46,6.46,17.57,17.57,0,0,1-3.9-.41q.06,1.31.12,2.58c.15,3.24.33,6.51.69,9.73l.6,5.43H225.07l.11-5q.15-6.66.23-13.33H205.48a22.51,22.51,0,0,1-5.32.63,17.52,17.52,0,0,1-8-1.78A15.72,15.72,0,0,1,186,329l-.05-.08s0-.05,0-.08c0,.55.1,1.09.16,1.64l.6,5.43H136.78l1.06-5.78a63.79,63.79,0,0,0,.62-8.53c.22-6,.27-12,.31-18,0-6.31,0-12.63-.13-18.93-.09-3.79-.2-7.71-.6-11.48l-.62-5.88,5.89.49c1.93.16,4.06.13,6,.14,4.34,0,8.68,0,13,0,6.4-.05,12.8-.13,19.2-.13l-.09-.37h42.92l0-.38h21.86a19.78,19.78,0,0,1,7.35-1.38,18.55,18.55,0,0,1,11.92,4,19.45,19.45,0,0,1,5.86,9c.22-.45.45-.9.68-1.33a25,25,0,0,1,7.74-9,19,19,0,0,1,10.94-3.52,18.38,18.38,0,0,1,10.41,2.55c3.42,2,5.93,5.37,7.82,8.85,0-1.6-.11-3.19-.23-4.76l-.39-5.21,17.52-.18C330.5,265.89,337.63,265.91,343.29,267.32Z"/><path class="cls-8" d="M373.06,328v-1.5a16.14,16.14,0,0,1-5.58,3.83,17.5,17.5,0,0,1-6.72,1.32,12.74,12.74,0,0,1-5.78-1.26,11,11,0,0,1-4.27-4,12.61,12.61,0,0,1-1.63-5.71q-.25-3.45-.12-24.05t-.76-24.36h15.07q-1,4.77-.88,37.05a32,32,0,0,0,.94,8c.55,1.8,1.53,2.7,2.95,2.7a4,4,0,0,0,3.58-2.51q1.32-2.52,1.45-10.8,0-31.28-.51-34.41H385q-.87,4.4-.81,28.76t.94,30H372.81a9.83,9.83,0,0,0,.25-3m-27-54.37-3.14,12.18c-.84-.75-2.76-1.27-5.78-1.57s-5.27.32-6.78,1.83a8.09,8.09,0,0,0-2.82,5.08,71.5,71.5,0,0,0-.69,12.12q.38,18.58,1.5,27.62H312.92q.75-8,.94-30.64T313.55,271l12.3-.13Q341.3,270.58,346.07,273.58Zm-71.83,45.71a37.72,37.72,0,0,1-1.88-8,70.42,70.42,0,0,1-.5-8.48,79.83,79.83,0,0,1,.44-8.47c.29-2.72.61-5,.94-6.72a28.71,28.71,0,0,1,3.08-8.16,20.13,20.13,0,0,1,6.21-7.29,14.18,14.18,0,0,1,8.29-2.63,13.44,13.44,0,0,1,7.78,1.88c2.43,1.42,4.65,4.17,6.66,8.22A38.27,38.27,0,0,1,309,292.11a74.29,74.29,0,0,1,.62,10.73,71,71,0,0,1-.75,8.6,48,48,0,0,1-1.76,7.72q-2.64,6.78-6.46,9.67a15.92,15.92,0,0,1-9.86,2.89,18.39,18.39,0,0,1-9.79-2.89Q276.76,326.07,274.24,319.29Zm16.58,1.26A3.57,3.57,0,0,0,294,319.1a15.58,15.58,0,0,0,1.76-5.46,71.81,71.81,0,0,0,.87-11.3,61.72,61.72,0,0,0-.81-12.31,25,25,0,0,0-1.95-6.78,3.26,3.26,0,0,0-3-1.76,3.41,3.41,0,0,0-3.08,1.76,23.14,23.14,0,0,0-2,6.78,62.57,62.57,0,0,0-.88,11.81,70.24,70.24,0,0,0,.88,11.3q.82,4.51,1.89,6A3.73,3.73,0,0,0,290.82,320.55ZM241.6,276.72l.88-1.13a12,12,0,0,1,4.71-3.76,14.75,14.75,0,0,1,6.34-1.38,13.68,13.68,0,0,1,8.85,2.88q3.57,2.9,5.21,9.92a54.79,54.79,0,0,1,1.26,7.91q.38,4.27.37,8.61c0,2.88-.12,5.67-.37,8.34a60.28,60.28,0,0,1-1,6.91,31,31,0,0,1-5.34,12.37,11.55,11.55,0,0,1-9.6,4.58,10.81,10.81,0,0,1-4.08-.69,14.47,14.47,0,0,1-3.45-2.07L244,327.83c-.08,2.18,0,6,.25,11.43q.28,6.17.72,10H230.07q.21-10.05.42-32.65.3-36-.7-44.82h12.06C241.76,272.33,241.68,274,241.6,276.72Zm8.41,4.65q-3.13,0-4.52,5.21A59.8,59.8,0,0,0,244,300.46q-.12,9.29,1.26,14.44t4.27,5.14c2.43,0,4.18-1.73,5.27-5.21a51.08,51.08,0,0,0,1.76-14.12,52.52,52.52,0,0,0-1.32-14Q253.78,281.37,250,281.37ZM212.47,328v-1.5a16.17,16.17,0,0,1-5.59,3.83,17.43,17.43,0,0,1-6.72,1.32,12.69,12.69,0,0,1-5.77-1.26,10.82,10.82,0,0,1-4.27-4,12.61,12.61,0,0,1-1.64-5.71q-.24-3.45-.12-24.05t-.75-24.36h15.06q-1,4.77-.88,37.05a31.94,31.94,0,0,0,1,8c.54,1.8,1.52,2.7,2.95,2.7a4,4,0,0,0,3.57-2.51q1.32-2.52,1.45-10.8,0-31.28-.5-34.41H224.4q-.89,4.4-.82,28.76t.94,30h-12.3A10.19,10.19,0,0,0,212.47,328Zm-55.75-41.06q-.63,2.78-.38,19.59t.44,19.72c.12,1.92.27,3.51.44,4.77H142.65q.89-4.77,1-27.44t-.76-30.95q3,.26,19.47.13t19.21-.13q-1,5.78-1.07,26t.13,24.61q.18,4.4.56,7.79H166.89c.16-1.34.33-2.85.5-4.52s.33-7.89.5-18.65.17-17.56,0-20.4c-.33-1.84-2.26-2.72-5.77-2.64S156.8,285.56,156.72,286.89ZM110,328v-1.5a16.17,16.17,0,0,1-5.59,3.83,17.46,17.46,0,0,1-6.72,1.32,12.69,12.69,0,0,1-5.77-1.26,10.82,10.82,0,0,1-4.27-4A12.61,12.61,0,0,1,86,320.61q-.24-3.45-.12-24.05t-.76-24.36h15.07q-1,4.77-.88,37.05a31.94,31.94,0,0,0,1,8c.54,1.8,1.52,2.7,3,2.7a4,4,0,0,0,3.57-2.51q1.32-2.52,1.45-10.8,0-31.28-.5-34.41h14.19q-.89,4.4-.82,28.76t.94,30h-12.3A10.19,10.19,0,0,0,110,328ZM53,276.72l.88-1.13a12,12,0,0,1,4.71-3.76,14.79,14.79,0,0,1,6.34-1.38,13.68,13.68,0,0,1,8.85,2.88q3.59,2.9,5.21,9.92a53.45,53.45,0,0,1,1.26,7.91q.38,4.27.37,8.61c0,2.88-.12,5.67-.37,8.34a58.14,58.14,0,0,1-1,6.91,31.11,31.11,0,0,1-5.33,12.37A11.58,11.58,0,0,1,64.3,332a10.81,10.81,0,0,1-4.08-.69,14.47,14.47,0,0,1-3.45-2.07l-1.38-1.38c-.09,2.18,0,6,.25,11.43s.58,9.54,1,12.3L41.2,356.83q.38-4.14.69-40.18t-.69-44.82h12C53.17,272.33,53.08,274,53,276.72Zm8.41,4.65q-3.13,0-4.52,5.21a59.34,59.34,0,0,0-1.5,13.88q-.14,9.29,1.25,14.44c.92,3.43,2.35,5.14,4.27,5.14,2.43,0,4.19-1.73,5.27-5.21a51.08,51.08,0,0,0,1.76-14.12,51.7,51.7,0,0,0-1.32-14Q65.18,281.37,61.41,281.37ZM17,331c.17-2.93.36-6.39.57-10.36s.35-8.21.44-12.68.17-9,.25-13.56.12-8.79.12-12.69,0-7.3-.12-10.23-.17-5-.25-6.28a10.75,10.75,0,0,0-.94-3.51,3.24,3.24,0,0,0-2.2-1.76,17.63,17.63,0,0,0-3.71-.44q-2.19-.06-5.58-.06.12-2.38.12-7.35t-.25-7.6q3.9.26,18.27.19t18.65-.31q-.26,2.76-.25,7.6t.12,7.34c-2.09,0-3.87,0-5.33.13a7.75,7.75,0,0,0-3.4.81,4.05,4.05,0,0,0-1.63,1.57,7.71,7.71,0,0,0-.56,2.76A56,56,0,0,0,31,271c0,3.06,0,6.61.06,10.67s.13,8.44.25,13.13.27,9.29.44,13.81.31,8.7.44,12.55.27,7.08.44,9.67Z"/></g></g></svg>